<svg id="Layer_1" data-name="Layer 1" xmlns="http://www.w3.org/2000/svg" viewBox="0 0 20.93 19.31"><defs><style>.cls-1{fill:#1d455f;fill-rule:evenodd;}</style></defs><title>like-outline</title><path class="cls-1" d="M19.24,1.79h0a5.6,5.6,0,0,0-8-.22c-.07.07-.15.14-.22.22l-.57.6-.58-.61a5.6,5.6,0,0,0-8-.24l-.23.23a6.3,6.3,0,0,0,0,8.6L10,19.12a.56.56,0,0,0,.81,0l0,0,8.35-8.73A6.3,6.3,0,0,0,19.24,1.79Zm-.85,7.72h0L10.46,17.8,2.55,9.5a5,5,0,0,1,0-6.82A4.44,4.44,0,0,1,8.87,2.5l.18.18,1,1a.57.57,0,0,0,.82,0l0,0,1-1a4.43,4.43,0,0,1,6.32-.18l.18.18A5,5,0,0,1,18.39,9.51Z" transform="translate(0 0)"/></svg>