<svg id="Layer_1" data-name="Layer 1" xmlns="http://www.w3.org/2000/svg" xmlns:xlink="http://www.w3.org/1999/xlink" viewBox="0 0 20.93 19.31"><defs><style>.cls-1{fill:#fff;}.cls-1,.cls-3{fill-rule:evenodd;}.cls-2{mask:url(#mask);}.cls-3{fill:#d55759;}</style><mask id="mask" x="0" y="0" width="20.93" height="19.31" maskUnits="userSpaceOnUse"><g transform="translate(0 0)"><g id="mask-2"><polygon id="path-1" class="cls-1" points="0 0 20.93 0 20.93 19.31 0 19.31 0 0"/></g></g></mask></defs><title>like-active</title><g id="Desktop"><g id="home---hover"><g id="recommend-hover"><g id="Group-9"><g id="Group-8"><g id="like"><g class="cls-2"><path id="Fill-1" class="cls-3" d="M19.24,1.8a5.6,5.6,0,0,0-8-.22c-.07.07-.15.14-.22.22l-.57.6-.58-.61a5.6,5.6,0,0,0-8-.24l-.23.23a6.3,6.3,0,0,0,0,8.6L10,19.12a.56.56,0,0,0,.81,0l0,0,8.35-8.73a6.3,6.3,0,0,0,0-8.6Z" transform="translate(0 0)"/></g></g></g></g></g></g></g></svg>