<?xml version="1.0" encoding="UTF-8"?>
<svg width="14px" height="11px" viewBox="0 0 14 11" version="1.1" xmlns="http://www.w3.org/2000/svg" xmlns:xlink="http://www.w3.org/1999/xlink">
    <!-- Generator: Sketch 60 (88103) - https://sketch.com -->
    <title>address</title>
    <desc>Created with Sketch.</desc>
    <g id="Symbols" stroke="none" stroke-width="1" fill="none" fill-rule="evenodd">
        <g id="Footer" transform="translate(-681.000000, -118.000000)" fill="#AEAEAE" fill-rule="nonzero">
            <g id="Group-2" transform="translate(521.000000, 51.000000)">
                <g id="Group">
                    <g id="Group-3" transform="translate(0.000000, 63.000000)">
                        <g id="address" transform="translate(160.000000, 4.000000)">
                            <path d="M4.25481762,6.52199074 C4.35394781,6.5928495 4.44563816,6.65905681 4.52831437,6.71939926 C4.82499397,6.93693035 5.06553196,7.1066324 5.25030922,7.22825263 C5.43490873,7.35015094 5.68075364,7.47440025 5.98781855,7.60125335 C6.29488346,7.72828342 6.58097462,7.7915583 6.84639673,7.7915583 L6.84639673,7.7915583 L6.8619366,7.7915583 C7.12733332,7.7915583 7.41342448,7.72825814 7.72051478,7.60125335 C8.02740195,7.47440025 8.27324686,7.35015094 8.45802412,7.22825263 C8.64282676,7.1066324 8.88349171,6.93690507 9.18001897,6.71939926 C9.26706259,6.65673109 9.35920999,6.59082713 9.45427747,6.52305248 L9.45427747,6.52305248 L13.4166667,10.4680628 C13.185092,10.6721199 12.9126871,10.775463 12.5983093,10.775463 L12.5983093,10.775463 L1.11015095,10.775463 C0.795798542,10.775463 0.523215905,10.6721199 0.291666667,10.4680628 L0.291666667,10.4680628 Z M0,3.40277778 C0.229404323,3.65466646 0.492907569,3.87828883 0.790051694,4.07354457 C1.89763052,4.81539097 2.79980151,5.42616396 3.5,5.90797035 L3.5,5.90797035 L0,9.35763889 Z M14,3.40277778 L14,9.35763889 L10.5,5.90928647 C11.2459705,5.39601637 12.1517864,4.78420543 13.2175494,4.07352762 C13.5148124,3.87306009 13.7755953,3.64959386 14,3.40277778 L14,3.40277778 Z M12.7498879,0 C13.0884313,0 13.3814764,0.119010732 13.6289468,0.356908638 C13.8761377,0.595103082 14,0.881089627 14,1.21531308 C14,1.61534334 13.8722487,1.99765543 13.6174324,2.3621258 C13.3621586,2.72659616 13.0445343,3.03813443 12.664356,3.29629579 C11.400264,4.1492637 10.4463742,4.79322148 9.79867063,5.23073913 C9.44271581,5.47103405 9.17796107,5.64997025 9.00806661,5.76490357 C8.98287729,5.78212751 8.9435301,5.80933491 8.8912451,5.84580913 C8.83494405,5.8849769 8.76369717,5.93489419 8.67597937,5.99659889 C8.50669494,6.11563433 8.36608211,6.21181161 8.25409004,6.2853037 C8.14189463,6.35864752 8.00656876,6.44093692 7.84775658,6.53212247 C7.6887919,6.62333273 7.53910481,6.69166011 7.3985174,6.73720346 C7.25785373,6.7827221 7.1276369,6.80555556 7.00789231,6.80555556 L7.00789231,6.80555556 L6.99233645,6.80555556 C6.87256645,6.80555556 6.74237503,6.7827221 6.60173678,6.73720346 C6.46112395,6.69166011 6.31130978,6.62318446 6.15247218,6.53212247 C5.9935075,6.44093692 5.8580037,6.3588205 5.74616414,6.2853037 C5.63417207,6.21181161 5.49355924,6.11560962 5.32430023,5.99659889 C5.2364045,5.93489419 5.16515762,5.88500161 5.10885657,5.84568557 C5.05659699,5.80935962 5.01722438,5.78197924 4.99218757,5.76490357 C4.77410043,5.6157942 4.50995572,5.43611666 4.20366783,5.22863865 C3.8443324,4.98498295 3.42617954,4.702629 2.94534568,4.37868555 C2.05461983,3.77873901 1.52073843,3.41790123 1.34370149,3.29629579 C1.02076476,3.08365307 0.716027372,2.79131566 0.429641841,2.4191353 C0.14325631,2.04680667 0,1.70121591 0,1.38226418 C0,0.987398632 0.107950595,0.658142197 0.324207637,0.394865549 C0.540286752,0.131712459 0.848735178,0 1.24993419,0 L1.24993419,0 Z" id="Combined-Shape"></path>
                        </g>
                    </g>
                </g>
            </g>
        </g>
    </g>
</svg>