<?xml version="1.0" encoding="UTF-8"?>
<svg width="13px" height="14px" viewBox="0 0 13 14" version="1.1" xmlns="http://www.w3.org/2000/svg" xmlns:xlink="http://www.w3.org/1999/xlink">
    <!-- Generator: Sketch 60 (88103) - https://sketch.com -->
    <title>phone</title>
    <desc>Created with Sketch.</desc>
    <g id="Symbols" stroke="none" stroke-width="1" fill="none" fill-rule="evenodd">
        <g id="Footer" transform="translate(-887.000000, -117.000000)" fill="#AEAEAE" fill-rule="nonzero">
            <g id="Group-2" transform="translate(521.000000, 51.000000)">
                <g id="Group">
                    <g id="Group-3" transform="translate(0.000000, 63.000000)">
                        <g id="phone" transform="translate(366.000000, 3.000000)">
                            <path d="M12.7085637,10.7840421 L10.7009165,8.6734369 C10.3010304,8.25477852 9.63881118,8.26749845 9.2249942,8.70264563 L8.2135329,9.76562335 C8.1496303,9.72860208 8.08348681,9.68993193 8.01394465,9.64890623 C7.3752174,9.27688758 6.50101038,8.76699119 5.58108928,7.79929515 C4.65844176,6.82955765 4.17291643,5.90920801 3.81792272,5.23736809 C3.78046258,5.16619145 3.74457105,5.09756665 3.7091277,5.03239665 L4.38796681,4.31988436 L4.72170945,3.96863374 C5.13616134,3.53285842 5.14758985,2.8369527 4.74863743,2.41707729 L2.7409902,0.306236568 C2.34203777,-0.113049962 1.67951979,-0.100330034 1.2650679,0.335445292 L0.699244155,0.93363526 L0.714706269,0.949770725 C0.524977911,1.20424781 0.366435217,1.49774838 0.248452563,1.81425475 C0.139694889,2.11552861 0.0719827802,2.40302255 0.0410212036,2.69110537 C-0.224075625,5.00126423 0.78021484,7.11257605 3.50572994,9.9775829 C7.27321974,13.9375636 10.3093217,13.6384097 10.4403014,13.6238053 C10.7255663,13.5879618 10.9989544,13.5163141 11.2767869,13.4028947 C11.5752729,13.280328 11.8543006,13.113909 12.0962416,12.9149049 L12.1086038,12.9264471 L12.6818225,12.336423 C13.0954154,11.9007262 13.1073294,11.2045849 12.7085637,10.7840421 Z" id="Path"></path>
                        </g>
                    </g>
                </g>
            </g>
        </g>
    </g>
</svg>