<svg id="Layer_1" data-name="Layer 1" xmlns="http://www.w3.org/2000/svg" viewBox="0 0 25 19.79"><defs><style>.cls-1{fill:#68abcc;}</style></defs><title>address</title><path class="cls-1" d="M2.4,6.05,5.26,8c.86.6,1.6,1.12,2.25,1.56s1,.71,1.4,1l.21.15.39.27c.3.22.55.4.75.53s.44.29.73.46a3.75,3.75,0,0,0,.8.37,2,2,0,0,0,.7.13h0a2,2,0,0,0,.7-.13A3.75,3.75,0,0,0,14,12c.29-.17.53-.32.73-.46s.45-.31.75-.53l.39-.27.21-.15,1.41-1,5.11-3.56a6.62,6.62,0,0,0,1.71-1.71A3.72,3.72,0,0,0,25,2.23,2.12,2.12,0,0,0,24.34.66,2.16,2.16,0,0,0,22.77,0H2.23A2,2,0,0,0,.58.73,2.77,2.77,0,0,0,0,2.54a3.27,3.27,0,0,0,.77,1.9A6.69,6.69,0,0,0,2.4,6.05Z" transform="translate(0 0)"/><path class="cls-1" d="M1.41,7.48A7.59,7.59,0,0,1,0,6.25V17.19l6.25-6.34C5,10,3.39,8.84,1.41,7.48Z" transform="translate(0 0)"/><path class="cls-1" d="M18.75,10.85,25,17.19V6.25a8,8,0,0,1-1.4,1.23Q20.75,9.44,18.75,10.85Z" transform="translate(0 0)"/><path class="cls-1" d="M16.39,12.34c-.53.4-1,.71-1.29.94a8.2,8.2,0,0,1-1.31.68,4,4,0,0,1-1.54.35h0A4,4,0,0,1,10.69,14a7.79,7.79,0,0,1-1.31-.68c-.33-.23-.76-.54-1.29-.94L7.6,12,.52,19.23A2.12,2.12,0,0,0,2,19.79H22.5A2.13,2.13,0,0,0,24,19.23L16.88,12Z" transform="translate(0 0)"/></svg>