<svg id="Layer_1" data-name="Layer 1" xmlns="http://www.w3.org/2000/svg" viewBox="0 0 25 25"><defs><style>.cls-1{fill:#68abcc;}</style></defs><title>email</title><g id="Desktop"><g id="contact"><g id="Group-6"><g id="Group-3"><g id="email"><path id="Shape" class="cls-1" d="M21.55,3.15A12.25,12.25,0,0,0,13,0,12.85,12.85,0,0,0,3.79,3.59,11.8,11.8,0,0,0,0,12.51a12.13,12.13,0,0,0,3.61,8.8Q7.23,25,13.34,25a18.45,18.45,0,0,0,7.24-1.5,1.53,1.53,0,0,0,.83-2h0a1.54,1.54,0,0,0-2-.82,15.5,15.5,0,0,1-6,1.31,9.31,9.31,0,0,1-7.27-2.83,9.57,9.57,0,0,1-2.58-6.65A9.45,9.45,0,0,1,6.25,5.6,9.19,9.19,0,0,1,13,2.83a9,9,0,0,1,6.24,2.28,7.37,7.37,0,0,1,2.55,5.74,6.39,6.39,0,0,1-1.17,3.93,3.13,3.13,0,0,1-2.42,1.58c-.45,0-.68-.24-.68-.73a12.49,12.49,0,0,1,.09-1.38l.95-7.76H15.29l-.21.76a4.29,4.29,0,0,0-2.76-1A5.31,5.31,0,0,0,8.25,8.11a6.92,6.92,0,0,0-1.69,4.83,6.93,6.93,0,0,0,1.5,4.65,4.58,4.58,0,0,0,3.62,1.77,4.09,4.09,0,0,0,3.23-1.57,3.35,3.35,0,0,0,3,1.51,6.34,6.34,0,0,0,5-2.5,9,9,0,0,0,2.11-6A10,10,0,0,0,21.55,3.15ZM14,14.89a2.55,2.55,0,0,1-2.08,1.16,1.51,1.51,0,0,1-1.33-.85A4.1,4.1,0,0,1,10,13.07a4.2,4.2,0,0,1,.71-2.54,2.12,2.12,0,0,1,1.76-1,2.21,2.21,0,0,1,1.62.72,2.63,2.63,0,0,1,.71,1.93A4.31,4.31,0,0,1,14,14.89Z" transform="translate(0 0)"/></g></g></g></g></g></svg>