<?xml version="1.0" encoding="utf-8"?>
<!-- Generator: Adobe Illustrator 15.1.0, SVG Export Plug-In . SVG Version: 6.00 Build 0)  -->
<!DOCTYPE svg PUBLIC "-//W3C//DTD SVG 1.1//EN" "http://www.w3.org/Graphics/SVG/1.1/DTD/svg11.dtd">
<svg version="1.1" id="שכבה_1" xmlns="http://www.w3.org/2000/svg" xmlns:xlink="http://www.w3.org/1999/xlink" x="0px" y="0px"
	 width="340.157px" height="141.732px" viewBox="0 0 340.157 141.732" enable-background="new 0 0 340.157 141.732"
	 xml:space="preserve">
<g>
	<path fill="#1A709E" d="M67.031,35.284c0,2.311-1.896,6.865-5.687,13.66l-3.918,3.017l-0.312-0.243
		c0.832-1.641,1.665-3.282,2.497-4.922c1.201-2.52,1.803-4.185,1.803-4.994c0-1.063-1.249-2.115-3.745-3.156
		c-1.78-0.762-3.502-1.305-5.166-1.629l3.502-10.333C63.356,29.159,67.031,32.023,67.031,35.284z"/>
	<path fill="#1A709E" d="M86.532,71.239c-0.046,0.485-0.138,0.913-0.277,1.282H74.883c-0.231-0.369-0.347-0.844-0.347-1.42
		c0-0.51,0.116-0.938,0.347-1.284h11.372C86.44,70.257,86.532,70.731,86.532,71.239z"/>
	<path fill="#1A709E" d="M88.751,54.769l-3.293,8.946H72.004l3.571-9.223h7.247c0-7.858,0.173-12.412,0.52-13.661
		c-0.602-1.108-2-2.08-4.196-2.912c-1.85-0.717-3.571-1.132-5.167-1.247l3.918-9.813c1.642,0,3.71,0.647,6.207,1.941
		c2.75,1.434,4.126,2.855,4.126,4.265c0,0.44-0.394,1.764-1.179,3.971c-0.786,2.208-1.179,3.865-1.179,4.976
		C85.874,46.24,86.833,50.493,88.751,54.769z"/>
	<path fill="#1A709E" d="M109.155,35.284c0,2.311-1.896,6.865-5.688,13.66l-3.917,3.017l-0.312-0.243
		c0.832-1.641,1.664-3.282,2.497-4.922c1.201-2.52,1.802-4.185,1.802-4.994c0-1.063-1.248-2.115-3.745-3.156
		c-1.78-0.762-3.501-1.305-5.166-1.629l3.501-10.333C105.48,29.159,109.155,32.023,109.155,35.284z"/>
	<path fill="#1A709E" d="M133.197,71.205c0,1.503-0.751,2.254-2.253,2.254c-1.479,0-2.219-0.751-2.219-2.254
		c0-1.479,0.74-2.219,2.219-2.219C132.446,68.986,133.197,69.726,133.197,71.205z M140.583,71.205c0,1.503-0.729,2.254-2.186,2.254
		c-1.524,0-2.287-0.751-2.287-2.254c0-1.479,0.763-2.219,2.287-2.219C139.854,68.986,140.583,69.726,140.583,71.205z"/>
	<path fill="#1A709E" d="M143.461,35.248c0,1.411-0.22,3.538-0.659,6.38c-0.693,4.485-1.41,7.801-2.15,9.952
		c-1.294,3.698-3.166,6.483-5.615,8.356c-4.021,3.074-8.588,5.119-13.696,6.136c-1.503,0.323-3.733,0.693-6.691,1.11l3.849-9.743
		c1.434-0.184,3.454-0.624,6.068-1.317c0.622-0.277,0.935-0.844,0.935-1.699c0-0.369-0.334-3.709-1.005-10.021
		c-0.186-1.872-0.913-3.293-2.184-4.264c-0.972-0.739-2.498-1.352-4.578-1.838c-0.577-0.184-1.433-0.381-2.564-0.589l2.842-10.679
		c1.248,0.093,2.728,0.44,4.438,1.041c3.514,1.248,5.271,4.588,5.271,10.021c0,0.508-0.017,1.26-0.052,2.254
		s-0.053,1.721-0.053,2.184v12.655c2.45-0.716,5.005-2.115,7.663-4.195c3.073-2.451,4.611-4.727,4.611-6.831
		c0-1.964-1.039-3.537-3.12-4.715c-1.85-1.063-3.792-1.514-5.825-1.352l3.293-10.922c2.59,0,4.752,0.693,6.484,2.081
		C142.548,30.729,143.461,32.73,143.461,35.248z"/>
	<path fill="#1A709E" d="M192.139,37.676c0,1.573-0.29,3.224-0.867,4.958l-2.808,8.563c-1.11,3.354-3.307,6.392-6.589,9.12
		c-2.867,2.381-6.184,4.219-9.95,5.513l-0.556-0.692l3.397-10.299c2.636-0.739,5.271-1.953,7.906-3.641
		c3.444-2.195,5.166-4.333,5.166-6.413c0-1.873-0.658-3.351-1.976-4.438c-1.227-1.041-2.798-1.561-4.716-1.561h-9.64
		c-1.85,0-3.067-0.29-3.658-0.867c-0.59-0.577-0.885-1.826-0.885-3.745v-7.939c0-1.087,0.659-3.087,1.978-5.999
		c0-1.249-1.457-2.588-4.369-4.021l3.397-8.288c3.884,2.612,5.826,4.635,5.826,6.067c0,0.693-0.491,2.011-1.475,3.954
		c-0.982,1.941-1.473,3.467-1.473,4.576v3.433c0,2.127,0.982,3.19,2.947,3.19h9.152c2.821,0,5.04,0.706,6.657,2.115
		C191.294,32.764,192.139,34.901,192.139,37.676z"/>
	<path fill="#1A709E" d="M212.505,71.239c-0.046,0.485-0.139,0.913-0.276,1.282h-11.373c-0.23-0.369-0.347-0.844-0.347-1.42
		c0-0.51,0.116-0.938,0.347-1.284h11.373C212.413,70.257,212.505,70.731,212.505,71.239z"/>
	<path fill="#1A709E" d="M205.295,44.749c0,1.503-0.74,2.254-2.22,2.254c-1.502,0-2.255-0.75-2.255-2.254
		c0-1.524,0.753-2.288,2.255-2.288C204.555,42.46,205.295,43.224,205.295,44.749z"/>
	<path fill="#1A709E" d="M217.083,57.683l-3.051,7.143h-0.694c-0.925-2.081-2.139-6.75-3.641-14.008h-0.416
		c-1.318,4.208-2.832,7.246-4.541,9.12c-1.11,1.224-3.814,3.248-8.114,6.066l-0.485-0.416l3.64-12.066
		c0.162-0.508,0.914-1.248,2.254-2.219c0.926-0.624,1.85-1.259,2.774-1.906c3.397-2.497,5.097-4.912,5.097-7.247
		c0-1.526-1.456-2.809-4.368-3.85c-2.382-0.831-4.496-1.214-6.345-1.144l2.981-9.951c2.635,0.162,5.166,0.694,7.593,1.595
		c3.33,1.226,4.992,2.797,4.992,4.715c0,0.325-0.323,1.7-0.969,4.127c-0.74,2.705-1.11,5.132-1.11,7.28
		C212.68,48.783,214.147,53.036,217.083,57.683z"/>
</g>
<g>
	<path fill="#96151B" d="M13.563,105.695c0,2-1.174,3.002-3.522,3.002v-7.59c0-3.352-1.627-5.029-4.883-5.029
		c-0.548,0-1.153,0.09-1.816,0.268c-0.116,0.031-0.224,0.047-0.324,0.047c-0.347,0-0.679-0.125-0.995-0.371
		c-0.316-0.248-0.532-0.537-0.648-0.869c1.229-0.617,2.73-0.928,4.507-0.928c2.055,0,3.808,0.533,5.26,1.6
		c1.614,1.189,2.421,2.777,2.421,4.762V105.695z M5.326,105.811c0,1.924-1.159,2.887-3.476,2.887v-6.523
		c0-0.518,0.166-0.945,0.499-1.281c0.332-0.336,0.753-0.504,1.263-0.504c0.518,0,0.933,0.166,1.246,0.498s0.469,0.762,0.469,1.287
		V105.811z"/>
	<path fill="#96151B" d="M26.563,105.695c0,2-1.174,3.002-3.522,3.002v-8.008c0-1.514-0.463-2.691-1.389-3.533
		c-0.802-0.727-1.781-1.088-2.938-1.088c-0.085,0-0.524,0.072-1.319,0.219c-0.085,0.016-0.169,0.023-0.254,0.023
		c-0.386,0-0.756-0.117-1.111-0.354c-0.354-0.234-0.594-0.531-0.717-0.887c1.097-0.563,2.402-0.846,3.916-0.846
		c2.132,0,3.866,0.561,5.202,1.68c1.421,1.191,2.132,2.832,2.132,4.926V105.695z"/>
	<path fill="#96151B" d="M32.472,105.766c0,0.926-0.352,1.664-1.054,2.213c-0.642,0.494-1.441,0.74-2.398,0.74V96.195
		c0-0.549,0.154-1.004,0.463-1.367c0.324-0.395,0.753-0.592,1.286-0.592c0.533,0,0.954,0.197,1.263,0.592
		c0.293,0.363,0.44,0.818,0.44,1.367V105.766z"/>
	<path fill="#96151B" d="M48.461,105.604c0,1.027-0.336,1.811-1.008,2.352c-0.61,0.494-1.441,0.742-2.491,0.742v-8
		c0-1.543-0.572-2.742-1.715-3.6c-0.88-0.656-1.834-0.984-2.862-0.984c-0.154,0-0.352,0.023-0.591,0.07v8.809
		c0,2.469-1.271,3.705-3.812,3.705c-0.912,0-1.673-0.174-2.283-0.521c0.046-0.34,0.186-0.643,0.417-0.904
		c0.255-0.293,0.544-0.439,0.869-0.439c0.046,0,0.11,0.004,0.191,0.016s0.145,0.018,0.191,0.018c0.649,0,0.973-0.365,0.973-1.1
		v-9.072h-0.023c-0.24,0-0.531-0.145-0.875-0.436c-0.344-0.289-0.546-0.549-0.608-0.781c1.73-0.834,3.662-1.252,5.793-1.252
		c2.232,0,4.055,0.529,5.469,1.588c1.576,1.182,2.363,2.854,2.363,5.018V105.604z"/>
	<path fill="#96151B" d="M62.898,105.695c0,2-1.174,3.002-3.522,3.002v-7.59c0-3.352-1.627-5.029-4.883-5.029
		c-0.548,0-1.153,0.09-1.816,0.268c-0.116,0.031-0.224,0.047-0.324,0.047c-0.347,0-0.679-0.125-0.995-0.371
		c-0.316-0.248-0.532-0.537-0.648-0.869c1.229-0.617,2.73-0.928,4.507-0.928c2.055,0,3.808,0.533,5.26,1.6
		c1.614,1.189,2.421,2.777,2.421,4.762V105.695z M54.66,105.811c0,1.924-1.159,2.887-3.476,2.887v-6.523
		c0-0.518,0.166-0.945,0.499-1.281c0.332-0.336,0.753-0.504,1.263-0.504c0.518,0,0.933,0.166,1.246,0.498s0.469,0.762,0.469,1.287
		V105.811z"/>
	<path fill="#96151B" d="M83.869,105.604c0,1.027-0.336,1.811-1.008,2.352c-0.61,0.494-1.441,0.742-2.491,0.742v-8
		c0-1.543-0.572-2.742-1.715-3.6c-0.88-0.656-1.834-0.984-2.862-0.984c-0.154,0-0.352,0.023-0.591,0.07v8.809
		c0,2.469-1.271,3.705-3.812,3.705c-0.912,0-1.673-0.174-2.283-0.521c0.046-0.34,0.186-0.643,0.417-0.904
		c0.255-0.293,0.544-0.439,0.869-0.439c0.046,0,0.11,0.004,0.191,0.016s0.145,0.018,0.191,0.018c0.649,0,0.973-0.365,0.973-1.1
		v-9.072h-0.023c-0.24,0-0.531-0.145-0.875-0.436c-0.344-0.289-0.546-0.549-0.608-0.781c1.73-0.834,3.662-1.252,5.793-1.252
		c2.232,0,4.055,0.529,5.469,1.588c1.576,1.182,2.363,2.854,2.363,5.018V105.604z"/>
	<path fill="#96151B" d="M89.813,105.766c0,0.926-0.352,1.664-1.054,2.213c-0.642,0.494-1.441,0.74-2.398,0.74V96.195
		c0-0.549,0.154-1.004,0.463-1.367c0.324-0.395,0.753-0.592,1.286-0.592c0.533,0,0.954,0.197,1.263,0.592
		c0.293,0.363,0.44,0.818,0.44,1.367V105.766z"/>
	<path fill="#96151B" d="M96,99.961c0,0.826-0.365,1.566-1.095,2.219c-0.729,0.652-1.516,0.979-2.357,0.979v-6.848
		c0-0.557,0.146-1.031,0.44-1.426c0.325-0.424,0.757-0.637,1.298-0.637s0.969,0.217,1.286,0.648C95.856,95.283,96,95.754,96,96.311
		V99.961z"/>
	<path fill="#96151B" d="M112.128,101.057c0,2.299-0.753,4.143-2.26,5.533c-1.397,1.289-3.124,1.934-5.179,1.934
		c-0.942,0-1.68-0.193-2.213-0.58c0.231-0.502,0.506-0.838,0.822-1.008c0.278-0.146,0.715-0.221,1.31-0.221
		c0.974,0,1.827-0.459,2.561-1.377c0.85-1.057,1.274-2.473,1.274-4.248c0-1.258-0.189-2.307-0.568-3.146
		c-0.518-1.143-1.334-1.713-2.447-1.713c-0.696,0-1.265,0.297-1.705,0.891c-0.364,0.494-0.6,1.117-0.708,1.865l-0.956,6.836
		c-0.108,0.783-0.506,1.436-1.193,1.955c-0.648,0.496-1.378,0.746-2.189,0.746c-0.147,0-0.29-0.008-0.429-0.023l1.274-8.91
		c0.046-0.324,0.07-0.576,0.07-0.754c0-0.447-0.197-0.973-0.591-1.574l-0.498-0.766c-0.271-0.418-0.405-0.814-0.405-1.193
		c0-0.41,0.139-0.754,0.417-1.031c0.95,0.402,1.981,1.158,3.093,2.271c0.595-0.818,1.243-1.387,1.946-1.703
		c0.649-0.303,1.503-0.453,2.561-0.453c1.847,0,3.326,0.66,4.438,1.98C111.603,97.609,112.128,99.172,112.128,101.057z"/>
	<path fill="#96151B" d="M118.025,99.961c0,0.826-0.365,1.566-1.095,2.219c-0.73,0.652-1.517,0.979-2.358,0.979v-6.848
		c0-0.557,0.147-1.031,0.44-1.426c0.324-0.424,0.757-0.637,1.298-0.637s0.97,0.217,1.286,0.648c0.285,0.387,0.429,0.857,0.429,1.414
		V99.961z"/>
	<path fill="#96151B" d="M126.437,105.766c0,0.703-0.218,1.287-0.654,1.754c-0.437,0.469-1.002,0.701-1.697,0.701h-4.554
		c0-0.4,0.162-0.803,0.487-1.205c0.37-0.455,0.803-0.684,1.297-0.684h1.703v-7.936c0-0.549-0.14-1.051-0.418-1.506
		c-0.318-0.533-0.736-0.801-1.256-0.801c-0.372,0-0.725-0.146-1.059-0.439c-0.333-0.293-0.53-0.625-0.593-0.996
		c0.564-0.225,1.232-0.336,2.005-0.336c1.298,0,2.398,0.379,3.302,1.135c0.958,0.811,1.437,1.854,1.437,3.129V105.766z"/>
	<path fill="#96151B" d="M141.985,101.189c0,2.254-0.71,4.051-2.132,5.387c-1.39,1.313-3.217,1.969-5.479,1.969
		c-1.785,0-3.275-0.336-4.473-1.008c0.433-0.787,1.043-1.182,1.83-1.182c0.14,0,0.259,0.012,0.359,0.035
		c0.919,0.209,1.553,0.313,1.9,0.313c1.452,0,2.568-0.598,3.349-1.795c0.656-1.02,0.984-2.299,0.984-3.836
		c0-1.242-0.216-2.328-0.648-3.256c-0.564-1.221-1.398-1.83-2.503-1.83c-1.815,0-2.723,1.229-2.723,3.684
		c0,1.607,0.648,2.689,1.946,3.244c-0.208,0.643-0.784,0.963-1.727,0.963c-0.17,0-0.328-0.012-0.475-0.035
		c-0.881-0.139-1.649-0.617-2.306-1.438c-0.656-0.818-0.984-1.68-0.984-2.582c0-1.746,0.629-3.141,1.888-4.184
		c1.183-0.98,2.665-1.471,4.449-1.471c2.225,0,3.912,0.617,5.063,1.854C141.426,97.227,141.985,98.949,141.985,101.189z"/>
	<path fill="#96151B" d="M155.217,98.373c0,2.92-1.12,5.406-3.359,7.461c-1.885,1.73-3.933,2.719-6.142,2.967
		c0-1.088,0.634-1.953,1.9-2.594c1.043-0.523,1.931-1.373,2.665-2.545c0.865-1.383,1.298-2.902,1.298-4.563
		c0-1.805-0.966-2.707-2.896-2.707h-4.519v-3.02c0-0.873,0.362-1.609,1.089-2.205c0.688-0.557,1.476-0.836,2.363-0.836v4.172h3.777
		c1.221,0,2.163,0.338,2.827,1.014S155.217,97.145,155.217,98.373z"/>
	<path fill="#96151B" d="M173.477,105.695c0,2-1.174,3.002-3.522,3.002v-8.008c0-1.514-0.463-2.691-1.388-3.533
		c-0.803-0.727-1.782-1.088-2.938-1.088c-0.085,0-0.524,0.072-1.319,0.219c-0.085,0.016-0.17,0.023-0.254,0.023
		c-0.386,0-0.756-0.117-1.111-0.354c-0.354-0.234-0.594-0.531-0.717-0.887c1.097-0.563,2.402-0.846,3.916-0.846
		c2.132,0,3.866,0.561,5.202,1.68c1.421,1.191,2.132,2.832,2.132,4.926V105.695z"/>
	<path fill="#96151B" d="M187.52,100.344c0,3.229-1.217,5.604-3.65,7.125c-1.97,1.229-4.681,1.869-8.133,1.924
		c0.239-0.619,0.459-1.047,0.66-1.287c0.309-0.363,0.741-0.568,1.298-0.613c0.224-0.016,0.583-0.09,1.077-0.221l-2.688-9.084
		c-0.093-0.316-0.14-0.621-0.14-0.916c0-0.779,0.29-1.486,0.869-2.119s1.259-0.965,2.039-0.996l2.978,12.305
		c1.46-0.471,2.19-2.283,2.19-5.434v-3.836c0-0.996,0.343-1.766,1.031-2.307c0.625-0.486,1.448-0.729,2.468-0.729V100.344z"/>
	<path fill="#96151B" d="M204.76,99.346c0,2.82-1.078,5.084-3.233,6.791c-1.984,1.574-4.426,2.363-7.322,2.363
		c-0.726,0-1.468-0.055-2.225-0.162l-1.541-10.625c-0.022-0.162-0.034-0.336-0.034-0.521c0-0.92,0.297-1.656,0.891-2.213
		c0.556-0.525,1.304-0.834,2.245-0.928l1.285,12.537c0.17,0.031,0.347,0.047,0.532,0.047c1.343,0,2.624-0.623,3.843-1.865
		c1.357-1.391,2.037-3.055,2.037-4.994v-2.561c0-1.012,0.341-1.789,1.022-2.33c0.628-0.486,1.461-0.729,2.5-0.729V99.346z
		 M199.256,99.184c0,1.098-0.29,2.002-0.869,2.711c-0.595,0.734-1.429,1.176-2.502,1.322v-6.002c0-0.988,0.32-1.754,0.961-2.295
		c0.595-0.494,1.398-0.74,2.41-0.74V99.184z"/>
	<path fill="#96151B" d="M219.149,105.695c0,2-1.174,3.002-3.521,3.002v-7.59c0-3.352-1.628-5.029-4.883-5.029
		c-0.548,0-1.153,0.09-1.817,0.268c-0.115,0.031-0.224,0.047-0.323,0.047c-0.348,0-0.679-0.125-0.995-0.371
		c-0.316-0.248-0.532-0.537-0.648-0.869c1.229-0.617,2.73-0.928,4.507-0.928c2.055,0,3.809,0.533,5.261,1.6
		c1.614,1.189,2.421,2.777,2.421,4.762V105.695z M210.912,105.811c0,1.924-1.159,2.887-3.476,2.887v-6.523
		c0-0.518,0.166-0.945,0.498-1.281s0.753-0.504,1.263-0.504c0.518,0,0.933,0.166,1.245,0.498c0.313,0.332,0.47,0.762,0.47,1.287
		V105.811z"/>
</g>
<g>
	<path fill="#818181" d="M7.913,130.564c0,0.42-0.113,0.797-0.339,1.133c-0.231,0.354-0.543,0.59-0.934,0.711
		c-0.204-0.191-0.444-0.533-0.719-1.023c-0.259-0.459-0.441-0.838-0.546-1.143c-0.567,1.445-1.414,2.166-2.538,2.166
		c-0.231,0-0.441-0.063-0.628-0.189c-0.204-0.143-0.306-0.328-0.306-0.555c0-0.236,0.091-0.439,0.273-0.607
		c0.182-0.168,0.394-0.26,0.637-0.275c0.656-0.045,1.19-0.459,1.604-1.244c0.347-0.662,0.521-1.355,0.521-2.08v-2.336
		c0-0.426-0.099-0.803-0.297-1.135c-0.237-0.398-0.554-0.596-0.951-0.596c-0.259,0-0.501-0.113-0.727-0.34
		c-0.209-0.209-0.333-0.447-0.372-0.711c0.309-0.121,0.771-0.182,1.389-0.182c0.97,0,1.766,0.26,2.389,0.777
		c0.667,0.557,1,1.311,1,2.266v2.67c0,0.699,0.113,1.287,0.339,1.76C7.844,129.918,7.913,130.229,7.913,130.564z"/>
	<path fill="#818181" d="M18.236,130.252c0,1.428-0.837,2.141-2.513,2.141v-5.713c0-1.08-0.331-1.92-0.991-2.521
		c-0.572-0.518-1.271-0.777-2.097-0.777c-0.061,0-0.374,0.053-0.941,0.158c-0.061,0.01-0.121,0.016-0.182,0.016
		c-0.275,0-0.54-0.084-0.792-0.252c-0.253-0.168-0.424-0.379-0.512-0.633c0.782-0.402,1.714-0.604,2.794-0.604
		c1.521,0,2.758,0.4,3.712,1.199c1.014,0.85,1.521,2.02,1.521,3.514V130.252z"/>
	<path fill="#818181" d="M23.807,130.301c0,0.662-0.251,1.188-0.752,1.578c-0.458,0.354-1.028,0.529-1.711,0.529v-8.936
		c0-0.391,0.11-0.717,0.331-0.977c0.231-0.279,0.537-0.42,0.917-0.42s0.681,0.141,0.901,0.42c0.209,0.26,0.314,0.586,0.314,0.977
		V130.301z"/>
	<path fill="#818181" d="M35.917,130.748c0,0.385-0.102,0.695-0.306,0.93c-0.215,0.25-0.515,0.375-0.901,0.375h-8.284
		c0-0.391,0.114-0.707,0.343-0.945c0.229-0.24,0.538-0.359,0.929-0.359h4.383v-4.068c0-0.992-0.264-1.783-0.792-2.373
		c-0.556-0.617-1.321-0.926-2.295-0.926c-0.11,0-0.407,0.041-0.892,0.125c-0.132,0.021-0.256,0.033-0.371,0.033
		c-0.6,0-0.985-0.289-1.156-0.869c0.783-0.402,1.714-0.604,2.794-0.604c1.538,0,2.769,0.365,3.695,1.094
		c1.02,0.801,1.529,1.953,1.529,3.453v3.289c0,0.563,0.262,0.846,0.785,0.846H35.917z"/>
	<path fill="#818181" d="M43.19,122.266c0,0.285-0.102,0.572-0.306,0.863c-0.226,0.322-0.474,0.484-0.744,0.484h-0.099
		c-0.65,0-0.976,0.395-0.976,1.188c0,0.203,0.031,0.42,0.095,0.646l0.952,3.572c0.079,0.287,0.119,0.594,0.119,0.918
		c0,0.635-0.146,1.182-0.438,1.645c-0.342,0.541-0.813,0.811-1.414,0.811l-1.389-5.506c-0.122-0.48-0.182-0.922-0.182-1.326
		c0-0.945,0.358-1.594,1.075-1.947h-0.876c-0.722,0-1.097-0.449-1.124-1.348H43.19z"/>
	<path fill="#818181" d="M50.025,130.301c0,0.502-0.156,0.92-0.467,1.252c-0.312,0.334-0.715,0.5-1.211,0.5h-3.249
		c0-0.285,0.116-0.572,0.347-0.859c0.264-0.324,0.573-0.488,0.926-0.488h1.215v-5.662c0-0.391-0.1-0.75-0.299-1.074
		c-0.227-0.381-0.525-0.57-0.896-0.57c-0.266,0-0.517-0.105-0.755-0.314s-0.379-0.447-0.423-0.711c0.402-0.16,0.879-0.24,1.43-0.24
		c0.926,0,1.711,0.27,2.356,0.811c0.683,0.578,1.025,1.322,1.025,2.232V130.301z"/>
	<path fill="#818181" d="M55.679,126.158c0,0.59-0.26,1.119-0.781,1.584c-0.521,0.467-1.082,0.699-1.682,0.699v-4.887
		c0-0.396,0.104-0.734,0.314-1.016c0.231-0.305,0.54-0.455,0.926-0.455s0.691,0.154,0.917,0.463
		c0.204,0.275,0.306,0.611,0.306,1.008V126.158z"/>
	<path fill="#818181" d="M64.011,130.564c0,0.42-0.113,0.797-0.339,1.133c-0.231,0.354-0.543,0.59-0.934,0.711
		c-0.204-0.191-0.444-0.533-0.719-1.023c-0.259-0.459-0.441-0.838-0.546-1.143c-0.567,1.445-1.414,2.166-2.538,2.166
		c-0.231,0-0.441-0.063-0.628-0.189c-0.204-0.143-0.306-0.328-0.306-0.555c0-0.236,0.091-0.439,0.273-0.607
		c0.182-0.168,0.394-0.26,0.637-0.275c0.656-0.045,1.19-0.459,1.604-1.244c0.347-0.662,0.521-1.355,0.521-2.08v-2.336
		c0-0.426-0.099-0.803-0.297-1.135c-0.237-0.398-0.554-0.596-0.951-0.596c-0.259,0-0.501-0.113-0.727-0.34
		c-0.209-0.209-0.333-0.447-0.372-0.711c0.309-0.121,0.771-0.182,1.389-0.182c0.97,0,1.766,0.26,2.389,0.777
		c0.667,0.557,1,1.311,1,2.266v2.67c0,0.699,0.113,1.287,0.339,1.76C63.942,129.918,64.011,130.229,64.011,130.564z"/>
	<path fill="#818181" d="M81.376,126.234c0,1.586-0.642,2.941-1.926,4.066c-1.135,0.998-2.406,1.557-3.811,1.678v-0.049
		c0-0.75,0.355-1.289,1.066-1.621c0.689-0.318,1.218-0.848,1.587-1.586c0.325-0.656,0.488-1.398,0.488-2.225
		c0-0.793-0.166-1.451-0.496-1.977c-0.397-0.621-0.967-0.934-1.711-0.934c-0.661,0-1.154,0.326-1.479,0.977
		c-0.248,0.506-0.372,1.127-0.372,1.859v6.795c0,0.689-0.245,1.238-0.736,1.646c-0.458,0.385-1.039,0.578-1.744,0.578v-8.813
		c0-1.539,0.57-2.553,1.711-3.043h-1.017c-0.402,0-0.726-0.119-0.971-0.359c-0.246-0.24-0.368-0.561-0.368-0.963h5.415
		c1.268,0,2.301,0.338,3.1,1.018C80.955,124.004,81.376,124.988,81.376,126.234z"/>
	<path fill="#818181" d="M93.329,130.334c0,0.678-0.284,1.207-0.852,1.588c-0.468,0.313-1.017,0.471-1.645,0.471v-5.762
		c0-1.059-0.375-1.891-1.124-2.498c-0.612-0.494-1.29-0.742-2.034-0.742c-0.171,0-0.347,0.033-0.529,0.098v6.859
		c0,1.363-0.821,2.045-2.463,2.045v-9.705c0.898-0.414,1.981-0.621,3.249-0.621c1.565,0,2.835,0.387,3.811,1.158
		c1.058,0.844,1.587,2.027,1.587,3.555V130.334z"/>
	<path fill="#818181" d="M104.364,124.67c0,0.842-0.185,1.572-0.553,2.189c-0.401,0.66-0.981,1.125-1.74,1.395
		c0.512,0.613,1.241,1.502,2.188,2.666c0,0.314-0.135,0.584-0.405,0.807c-0.27,0.223-0.564,0.336-0.885,0.336h-6.648
		c0-0.309,0.128-0.605,0.384-0.889c0.256-0.285,0.536-0.426,0.839-0.426h3.902l-4.539-5.639c-0.353-0.441-0.529-0.924-0.529-1.447
		c0-0.391,0.099-0.754,0.298-1.09c0.22-0.381,0.51-0.602,0.868-0.662l3.712,5.232c0.292-0.16,0.482-0.432,0.57-0.818
		c0.05-0.215,0.075-0.563,0.075-1.041v-1.207c0-0.639,0.27-1.152,0.81-1.537c0.469-0.336,1.02-0.506,1.653-0.506V124.67z"/>
	<path fill="#818181" d="M110.142,126.158c0,0.59-0.261,1.119-0.781,1.584c-0.521,0.467-1.082,0.699-1.683,0.699v-4.887
		c0-0.396,0.104-0.734,0.314-1.016c0.231-0.305,0.54-0.455,0.926-0.455s0.691,0.154,0.918,0.463
		c0.203,0.275,0.306,0.611,0.306,1.008V126.158z"/>
	<path fill="#818181" d="M127.078,130.748c0,0.385-0.103,0.695-0.306,0.93c-0.216,0.25-0.516,0.375-0.901,0.375h-8.283
		c0-0.391,0.114-0.707,0.342-0.945c0.229-0.24,0.538-0.359,0.929-0.359h4.384v-4.068c0-0.992-0.265-1.783-0.793-2.373
		c-0.556-0.617-1.32-0.926-2.294-0.926c-0.11,0-0.407,0.041-0.892,0.125c-0.132,0.021-0.256,0.033-0.372,0.033
		c-0.6,0-0.984-0.289-1.155-0.869c0.782-0.402,1.714-0.604,2.794-0.604c1.538,0,2.77,0.365,3.695,1.094
		c1.02,0.801,1.529,1.953,1.529,3.453v3.289c0,0.563,0.262,0.846,0.786,0.846H127.078z"/>
	<path fill="#818181" d="M137.195,130.252c0,1.428-0.838,2.141-2.513,2.141v-5.713c0-1.08-0.33-1.92-0.991-2.521
		c-0.572-0.518-1.271-0.777-2.096-0.777c-0.062,0-0.375,0.053-0.941,0.158c-0.061,0.01-0.121,0.016-0.182,0.016
		c-0.275,0-0.539-0.084-0.793-0.252c-0.253-0.168-0.424-0.379-0.512-0.633c0.783-0.402,1.715-0.604,2.795-0.604
		c1.521,0,2.758,0.4,3.712,1.199c1.014,0.85,1.521,2.02,1.521,3.514V130.252z"/>
	<path fill="#818181" d="M148.825,130.252c0,1.428-0.838,2.141-2.513,2.141v-5.414c0-2.393-1.162-3.588-3.484-3.588
		c-0.391,0-0.823,0.063-1.296,0.189c-0.083,0.021-0.16,0.033-0.231,0.033c-0.248,0-0.484-0.088-0.71-0.266
		c-0.226-0.176-0.38-0.383-0.463-0.619c0.877-0.441,1.948-0.662,3.216-0.662c1.467,0,2.718,0.381,3.754,1.141
		c1.151,0.85,1.728,1.982,1.728,3.398V130.252z M142.947,130.334c0,1.373-0.826,2.059-2.479,2.059v-4.654
		c0-0.369,0.118-0.674,0.355-0.914c0.236-0.24,0.537-0.359,0.9-0.359c0.369,0,0.666,0.119,0.889,0.355
		c0.224,0.236,0.335,0.543,0.335,0.918V130.334z"/>
	<path fill="#818181" d="M166.498,130.186c0,0.732-0.24,1.293-0.72,1.678c-0.436,0.354-1.028,0.529-1.777,0.529v-5.707
		c0-1.102-0.408-1.957-1.224-2.568c-0.628-0.469-1.309-0.703-2.042-0.703c-0.11,0-0.251,0.018-0.421,0.051v6.285
		c0,1.762-0.907,2.643-2.721,2.643c-0.65,0-1.192-0.125-1.628-0.373c0.033-0.242,0.132-0.457,0.298-0.645
		c0.182-0.209,0.388-0.314,0.619-0.314c0.033,0,0.079,0.006,0.137,0.014s0.104,0.012,0.137,0.012c0.463,0,0.694-0.262,0.694-0.785
		v-6.473h-0.017c-0.171,0-0.379-0.104-0.624-0.311s-0.391-0.393-0.435-0.559c1.234-0.594,2.612-0.893,4.134-0.893
		c1.593,0,2.894,0.379,3.902,1.133c1.124,0.844,1.687,2.037,1.687,3.58V130.186z"/>
	<path fill="#818181" d="M172.093,130.301c0,0.662-0.251,1.188-0.752,1.578c-0.458,0.354-1.028,0.529-1.712,0.529v-8.936
		c0-0.391,0.11-0.717,0.331-0.977c0.231-0.279,0.537-0.42,0.918-0.42c0.38,0,0.68,0.141,0.9,0.42c0.21,0.26,0.314,0.586,0.314,0.977
		V130.301z"/>
	<path fill="#818181" d="M185.559,125.721c0,2.012-0.769,3.627-2.307,4.844c-1.416,1.125-3.157,1.688-5.225,1.688
		c-0.518,0-1.047-0.039-1.587-0.115l-1.1-7.582c-0.017-0.115-0.024-0.238-0.024-0.371c0-0.656,0.212-1.182,0.636-1.58
		c0.396-0.373,0.93-0.594,1.602-0.66l0.917,8.945c0.121,0.021,0.247,0.033,0.38,0.033c0.958,0,1.872-0.445,2.741-1.332
		c0.97-0.992,1.454-2.18,1.454-3.563v-1.828c0-0.721,0.243-1.275,0.729-1.66c0.448-0.348,1.042-0.521,1.783-0.521V125.721z
		 M181.632,125.605c0,0.783-0.207,1.428-0.62,1.934c-0.424,0.523-1.02,0.838-1.785,0.943v-4.283c0-0.705,0.229-1.25,0.686-1.637
		c0.425-0.352,0.998-0.529,1.72-0.529V125.605z"/>
	<path fill="#818181" d="M197.404,130.986c0,0.539-0.209,1.014-0.626,1.42l-5.218-5.488c-0.287,0.178-0.432,0.59-0.432,1.24v2.199
		c0,0.646-0.283,1.164-0.852,1.555c-0.479,0.332-1.017,0.496-1.611,0.496v-2.844c0-1.711,0.695-2.885,2.087-3.523l-1.68-1.645
		c-0.344-0.336-0.515-0.727-0.515-1.174c0-0.648,0.253-1.092,0.76-1.33l5.154,5.363c0.245-0.176,0.368-0.549,0.368-1.115v-2.049
		c0-0.729,0.301-1.275,0.901-1.645c0.452-0.275,0.97-0.414,1.555-0.414v2.813c0,1.576-0.646,2.707-1.936,3.396l1.489,1.504
		C197.22,130.121,197.404,130.535,197.404,130.986z"/>
	<path fill="#818181" d="M208.1,130.252c0,1.428-0.838,2.141-2.513,2.141v-5.713c0-1.08-0.33-1.92-0.991-2.521
		c-0.572-0.518-1.271-0.777-2.096-0.777c-0.062,0-0.375,0.053-0.941,0.158c-0.061,0.01-0.121,0.016-0.182,0.016
		c-0.275,0-0.539-0.084-0.793-0.252c-0.253-0.168-0.424-0.379-0.512-0.633c0.783-0.402,1.715-0.604,2.795-0.604
		c1.521,0,2.758,0.4,3.712,1.199c1.014,0.85,1.521,2.02,1.521,3.514V130.252z"/>
	<path fill="#818181" d="M220.011,130.748c0,0.385-0.103,0.695-0.306,0.93c-0.216,0.25-0.516,0.375-0.901,0.375h-8.283
		c0-0.391,0.114-0.707,0.342-0.945c0.229-0.24,0.538-0.359,0.929-0.359h4.384v-4.068c0-0.992-0.265-1.783-0.793-2.373
		c-0.556-0.617-1.32-0.926-2.294-0.926c-0.11,0-0.407,0.041-0.892,0.125c-0.132,0.021-0.256,0.033-0.372,0.033
		c-0.6,0-0.984-0.289-1.155-0.869c0.782-0.402,1.714-0.604,2.794-0.604c1.538,0,2.77,0.365,3.695,1.094
		c1.02,0.801,1.529,1.953,1.529,3.453v3.289c0,0.563,0.262,0.846,0.786,0.846H220.011z"/>
</g>
<line fill="none" x1="177.242" y1="27.392" x2="339.337" y2="27.392"/>
<g>
	<g>
		<path fill-rule="evenodd" clip-rule="evenodd" fill="#1A709E" d="M328.272,72.732c0,0.504-0.125,1.008-0.251,1.133
			c-0.128,0.252-0.379,0.377-0.504,0.377c-0.126,0-0.252-0.125-0.252-0.252c-0.125-0.125-0.125-0.375-0.125-0.754v-0.504
			l0.125-6.046c0-0.126,0-0.251-0.125-0.378c-0.127-0.125-0.505-0.377-1.009-0.505c-0.632-0.251-1.134-0.629-1.386-0.881
			c-0.377-0.376-0.504-0.755-0.504-1.387c0-0.376,0.127-0.753,0.253-1.132c0.126-0.504,0.251-0.63,0.251-0.63
			c0.252-0.126,0.378,0,0.503,0.252c0.128,0.253,0.251,0.378,0.506,0.505c0.124,0.124,0.377,0.252,0.754,0.377
			c0.379,0.123,0.632,0.377,0.883,0.504c0.251,0.252,0.377,0.379,0.502,0.628c0,0.255,0,0.757,0.128,1.513c0,0.756,0,1.258,0,1.512
			l0.251,5.292V72.732z"/>
		<path fill-rule="evenodd" clip-rule="evenodd" fill="#1A709E" d="M314.293,65.301c0,0.376-0.126,0.754-0.253,1.259
			c-0.126,0.504-0.377,0.757-0.377,0.757c-0.126,0.126-0.252,0-0.631-0.13c-0.251-0.249-0.503-0.377-0.754-0.627l-0.632,1.387
			l0.632,0.629c0.503,0.505,1.006,1.008,1.385,1.637c0.377,0.504,0.504,1.133,0.504,1.762c0,0.504-0.127,1.008-0.253,1.514
			c-0.251,0.377-0.377,0.629-0.63,0.629c-0.125,0.125-0.252,0.125-0.252-0.127c-0.251-0.881-0.628-1.512-1.133-2.266
			c-0.63-0.629-1.638-1.512-3.147-2.644l-1.89-1.512c-0.253,0.126-0.253,0.378-0.379,0.503c-0.125,0.252-0.125,0.504-0.125,0.631
			c0,0.504,0.125,0.881,0.251,1.006c0.126,0.251,0.379,0.504,0.755,0.883c0.379,0.504,0.63,0.754,0.755,1.006
			c0.127,0.254,0.253,0.631,0.253,1.008c0,0.631-0.253,1.01-0.629,1.26c-0.253,0.125-0.755,0.252-1.26,0.252h-1.008
			c-0.376,0-0.502-0.127-0.502-0.252c0,0,0.126-0.125,0.251-0.377c0.124-0.252,0.124-0.379,0.124-0.506l-0.124-0.881
			c-0.125-0.377-0.125-0.629-0.251-0.756c0-0.125,0-0.377,0-0.629c0-0.504,0.126-1.008,0.251-1.51
			c0.124-0.504,0.503-1.26,1.134-2.143c-0.379-0.378-0.631-0.881-0.883-1.261c-0.127-0.502-0.251-0.881-0.251-1.257
			c0-0.631,0.124-1.262,0.377-1.892c0.253-0.503,0.503-0.881,0.757-1.007c0.125,0,0.251,0.126,0.251,0.378
			c0.253,0.757,0.504,1.51,0.881,2.014c0.253,0.507,0.882,1.135,2.016,2.144l0.882,0.755l0.756,0.631l0.631-1.386
			c-0.252-0.252-0.505-0.631-0.758-0.882c-0.125-0.379-0.251-0.632-0.251-1.007c0-0.504,0.251-1.135,0.631-1.64
			c0.378-0.629,0.754-0.881,1.008-1.007c0.25,0.126,0.25,0.252,0.25,0.504v0.252c-0.125,0.127-0.125,0.251,0,0.379
			c0,0.125,0.252,0.248,0.505,0.629c0.252,0.252,0.504,0.628,0.755,0.883C314.167,64.669,314.293,65.05,314.293,65.301z"/>
		<path fill-rule="evenodd" clip-rule="evenodd" fill="#1A709E" d="M296.407,71.346c0,0.252,0,0.629-0.126,1.01
			c-0.252,0.377-0.378,0.754-0.503,1.133c-0.126,0.252-0.253,0.502-0.378,0.502c-0.252,0.127-0.378,0.127-0.757,0.127h-6.548
			c-0.128,0-0.254,0-0.379,0c-0.251,0-0.251-0.127-0.251-0.252s0-0.377,0.126-0.883c0.125-0.377,0.25-0.881,0.376-1.258
			c0.128-0.379,0.38-0.504,0.631-0.504h5.542c0.251,0,0.503-0.125,0.503-0.252c0.127-0.252,0.127-0.756,0.127-1.512
			c0-1.385-0.127-2.393-0.503-3.021c-0.379-0.632-1.259-0.883-2.521-0.883l-1.637-0.127c-0.505,0-1.009-0.124-1.388-0.375
			c-0.375-0.254-0.502-0.756-0.502-1.639c0-0.127,0-0.504,0.127-1.008c0.126-0.504,0.251-0.756,0.502-0.756
			c0.126,0,0.252,0.126,0.379,0.252c0,0.126,0.127,0.252,0.127,0.379c0.125,0.125,0.375,0.252,0.628,0.252l1.134,0.124h1.009
			c1.511,0,2.518,0.376,2.896,1.261c0.378,0.754,0.503,1.888,0.503,3.271c0,1.009,0,1.766,0,2.144s-0.125,1.007-0.125,1.89
			c0.252,0,0.503,0,0.756,0C296.407,71.221,296.533,71.221,296.407,71.346z"/>
		<path fill-rule="evenodd" clip-rule="evenodd" fill="#1A709E" d="M275.121,65.05c0,0.251,0,0.502,0,0.881c0,0.377,0,0.755,0,1.007
			c0,0.126,0,0.379,0,0.631c-0.125,0.378-0.125,0.627-0.25,0.88c0,0.377-0.128,0.504-0.379,0.504
			c-0.126-0.127-0.252-0.25-0.252-0.377l0.126-1.259c0-0.507-0.126-0.882-0.252-1.009c-0.127-0.125-0.503-0.377-1.009-0.505
			c-0.502-0.251-0.882-0.378-1.133-0.629c-0.25-0.124-0.377-0.628-0.377-1.384c0-0.255,0-0.76,0.127-1.26
			c0.126-0.631,0.25-0.883,0.501-0.883c0.128,0,0.254,0.126,0.254,0.252c0.126,0.252,0.252,0.379,0.378,0.379
			c0.123,0.125,0.377,0.252,0.63,0.376c0.629,0.253,1.132,0.505,1.258,0.881C274.996,63.916,275.121,64.417,275.121,65.05z"/>
		<path fill-rule="evenodd" clip-rule="evenodd" fill="#1A709E" d="M261.898,68.576c0,0.631,0,1.384,0,2.267
			c-0.127,0.882-0.254,1.89-0.632,2.773c0,0,0,0.125-0.126,0.25c-0.127,0-0.127,0.125-0.253,0.125h-8.06
			c-0.252,0-0.377,0-0.504-0.125c-0.125,0-0.125-0.125-0.125-0.25l-0.126-4.79c0-0.63,0.126-1.257,0.378-1.762
			c0.125-0.504,0.377-1.133,0.756-1.639c-0.379-0.124-0.756-0.375-1.008-0.756c-0.251-0.375-0.379-0.754-0.379-1.134
			c0-0.505,0.128-0.881,0.253-1.384c0.251-0.504,0.378-0.63,0.629-0.63c0.126,0,0.126,0,0.252,0.252
			c0.128,0.252,0.253,0.378,0.253,0.378c0.128,0.127,0.376,0.252,0.755,0.503c0.503,0.253,0.756,0.505,0.883,0.757
			c0.125,0.252,0.252,0.504,0.252,0.883c0,0.628-0.127,1.131-0.252,1.509c-0.127,0-0.253,0.128-0.38,0.128l-0.629-0.254
			c-0.378,0.254-0.501,0.631-0.629,0.883c-0.125,0.378-0.125,0.883-0.125,1.387c0,0.502,0,1.006,0.125,1.762
			c0.128,0.757,0.251,1.134,0.251,1.134c0.125,0.126,0.252,0.126,0.378,0.253c0.126,0,0.38,0,0.882,0h6.17c0.126,0,0.126,0,0.253,0
			c0-0.127,0-0.253,0.126-0.504c0-0.254,0-0.502,0-0.757c0-1.259-0.379-2.266-1.007-3.148c-0.756-0.883-1.512-1.385-2.267-1.385
			c-0.504,0-0.883,0.124-1.133,0.502c-0.253,0.252-0.507,0.757-0.631,1.384l-0.378,1.262c0,0.127-0.126,0.127-0.252,0.127
			c-0.127,0-0.254-0.127-0.254-0.252c0-0.252,0.127-0.881,0.506-2.016c0.253-1.007,0.629-1.891,0.756-2.518
			c0.253-0.631,0.503-1.136,0.503-1.26c0.125-0.252,0.251-0.379,0.379-0.379c1.259,0,2.268,0.503,3.15,1.639
			C261.521,64.796,261.898,66.308,261.898,68.576z"/>
		<path fill-rule="evenodd" clip-rule="evenodd" fill="#1A709E" d="M244.264,72.479c0,0.381-0.126,0.758-0.503,1.137
			c-0.377,0.375-0.631,0.502-1.009,0.502c-0.125,0-0.252-0.127-0.125-0.252c0-0.25,0-0.629,0-1.133c0-0.631,0.125-1.008,0.125-1.26
			l-0.125-5.92h-5.92c-0.377,0-0.757,0-1.009-0.127v-3.651c0,0.126,0,0.126,0,0.252c0,0.253,0.127,0.378,0.252,0.378
			c0.253,0.127,0.38,0.127,0.63,0.127h5.669c0.631,0,1.135,0.124,1.386,0.252c0.379,0.248,0.503,0.753,0.503,1.385
			c0,0.379,0,0.755-0.124,0.883c0,0.251-0.127,0.375-0.253,0.502c-0.126,0.125-0.253,0.251-0.253,0.503l0.127,1.765l0.629,3.905
			c0,0.127,0,0.25,0,0.377S244.264,72.355,244.264,72.479L244.264,72.479z M235.698,73.74c0.127-0.125,0.379-0.379,0.505-0.631
			c0.127-0.377,0.253-0.881,0.253-1.637v-0.504v-1.762l0.124-1.011c0-0.249,0-0.376-0.124-0.376c-0.253,0-0.506,0.127-0.758,0.376
			V73.74z M235.698,65.425c-0.251,0-0.503-0.124-0.63-0.251c-0.249-0.252-0.376-0.757-0.376-1.384c0-0.506,0.127-1.008,0.252-1.387
			c0.124-0.504,0.378-0.756,0.503-0.756c0.128,0,0.251,0.126,0.251,0.126V65.425L235.698,65.425z M235.698,68.196v5.544
			c0,0.125-0.123,0.125-0.123,0.125c-0.253,0.252-0.38,0.377-0.631,0.377c-0.125-0.125-0.125-0.252-0.125-0.627v-2.899
			c0-0.757,0.249-1.386,0.503-2.014C235.447,68.449,235.575,68.324,235.698,68.196z"/>
		<path fill-rule="evenodd" clip-rule="evenodd" fill="#1A709E" d="M328.902,98.047c0,0.127-0.126,0.254-0.126,0.504
			c0,0.254-0.126,0.631-0.251,1.01c0,0.377-0.126,0.629-0.126,0.756c-0.127,0.125-0.252,0.125-0.378,0.125h-3.779
			c-0.127,0-0.252,0-0.38,0c-0.123,0-0.248-0.125-0.248-0.125c0-0.252,0-0.379,0-0.379l0.881-1.764
			c0.126-0.25,0.251-0.379,0.378-0.502c0.125,0,0.251,0,0.627,0h1.892c-0.126-0.758-0.251-1.639-0.251-2.518
			c0-0.131,0-0.381,0-0.506c0-0.254,0-0.379,0-0.629l0.125-0.885v-0.252c0-0.25,0-0.377-0.125-0.504
			c-0.127-0.127-0.505-0.25-0.883-0.375c-0.503-0.129-1.009-0.379-1.26-0.633c-0.377-0.377-0.503-0.881-0.503-1.51
			c0-0.377,0-0.758,0.126-1.135c0.125-0.504,0.377-0.754,0.503-0.754c0.125,0,0.125,0,0.125,0.127c0.128,0,0.128,0.123,0.251,0.25
			c0.129,0.252,0.129,0.377,0.379,0.504c0.127,0.127,0.379,0.25,0.881,0.379c0.506,0.125,0.883,0.252,1.134,0.502
			c0.379,0.127,0.506,0.504,0.506,1.008c0,0.127,0,0.252-0.127,0.379c0,0.25,0,0.377-0.125,0.754c0,0.254-0.126,0.504-0.126,0.883
			c-0.128,0.377-0.128,0.629-0.128,0.756c0,0.377,0,0.629,0,0.629c0,0.127,0.128,0.379,0.128,0.881
			c0.251,0.758,0.504,1.385,0.629,2.016C328.776,97.543,328.902,97.924,328.902,98.047z"/>
		<path fill-rule="evenodd" clip-rule="evenodd" fill="#1A709E" d="M331.296,119.963c0,0.631,0,1.387-0.126,2.016
			c-0.127,0.756-0.378,1.385-0.63,1.889c-0.252,0.506-0.504,0.881-0.63,0.881c0,0.127-0.253,0.127-0.504,0.127h-1.007h-4.157
			c-0.38,0-0.628-0.127-0.628-0.252s0.125-0.377,0.248-0.756c0.128-0.252,0.38-0.883,0.759-1.635
			c0.125-0.254,0.503-0.254,1.008-0.254h4.911c0.126-0.379,0.126-0.756,0.126-1.26c0-1.133-0.378-2.268-1.134-3.148
			c-0.756-1.008-1.764-1.385-2.896-1.385c-1.512,0-2.646,0.629-3.149,2.016c-0.629,1.258-1.006,2.895-1.006,4.658v0.883
			c0,0.377,0,0.631-0.128,0.881c-0.125,0.125-0.251,0.252-0.504,0.252c-0.125,0-0.251-0.127-0.377-0.502c0-0.254,0-0.631,0-1.01
			c0-1.26,0.126-2.268,0.505-3.273c0.376-1.008,0.629-1.512,0.755-1.889l0.126-0.254c0-0.125,0-0.125,0-0.25
			c-0.126-0.127-0.252-0.377-0.63-0.758c-0.251-0.377-0.504-0.754-0.63-1.006c-0.126-0.127-0.126-0.506-0.126-0.758
			c0-0.502,0.126-1.006,0.505-1.637c0.376-0.629,0.629-1.006,0.755-1.006h0.252c0.503,0.881,0.879,1.637,1.259,2.266
			c0.379,0.629,0.631,0.881,0.882,0.881c0.253,0,0.505-0.252,0.882-0.881c0.378-0.504,0.503-1.008,0.63-1.26
			c0.124-0.377,0.378-0.506,0.505-0.506c0.502,0,1.007,0.254,1.762,0.633c0.63,0.379,1.134,1.008,1.51,1.762
			c0.38,0.758,0.631,1.512,0.758,2.143C331.296,118.326,331.296,119.082,331.296,119.963z"/>
		<path fill-rule="evenodd" clip-rule="evenodd" fill="#1A709E" d="M313.663,97.039c0,0.252-0.126,0.504-0.126,0.885
			c-0.126,0.25-0.253,0.627-0.378,0.881c-0.127,0.377-0.378,0.629-0.505,1.006c-0.25,0.254-0.376,0.506-0.63,0.506
			c-0.125,0.125-0.378,0.125-0.881,0.125h-5.039c-0.25,0-0.503,0-0.629,0c-0.251-0.125-0.251-0.125-0.251-0.377
			c0-0.127,0-0.504,0.124-0.883c0.127-0.377,0.253-0.631,0.379-1.008c0.127-0.25,0.252-0.379,0.377-0.502c0.127,0,0.379,0,0.758,0
			h5.288c0.379,0,0.504-0.129,0.631-0.254c0-0.127,0.125-0.504,0.125-1.01c0-1.51-0.377-2.77-1.007-3.65
			c-0.63-0.883-1.888-1.26-3.78-1.26c-0.376,0-0.629,0.127-1.006,0.377c-0.251,0.254-0.378,0.631-0.378,1.008
			c0,0.129,0.127,0.377,0.378,0.377l1.133,0.127c0.38,0,0.63,0.127,0.757,0.504c0.126,0.379,0.126,0.631,0.126,1.008
			c0,0.256,0,0.506-0.126,0.631c0,0.125-0.251,0.125-0.377,0.125h-1.008c-0.379,0-0.756,0.127-1.009,0.25
			c-0.126,0-0.378,0.129-0.378,0.129c-0.127,0.125-0.252,0.125-0.377,0.252c-0.127,0-0.253-0.127-0.253-0.381
			c0,0,0-0.123,0.126-0.123c0,0,0-0.127,0.127-0.127c0,0,0-0.125,0-0.25c0-0.127,0-0.25,0-0.506
			c-0.127-0.377-0.127-0.629-0.127-0.756c0-0.756,0.127-1.26,0.377-1.637c0.254-0.502,0.631-0.881,1.009-1.135
			c-0.378-0.125-0.63-0.25-0.755-0.502c-0.127-0.252-0.254-0.504-0.254-1.135c0-0.377,0.127-0.754,0.254-1.133
			c0.125-0.502,0.251-0.629,0.504-0.629c0.126,0,0.126,0,0.251,0.127c0,0.25,0.251,0.377,0.377,0.377
			c0.253,0.125,1.008,0.25,2.267,0.377c1.135,0.25,2.143,0.756,2.772,1.764C313.284,91.498,313.663,93.639,313.663,97.039z"/>
		<path fill-rule="evenodd" clip-rule="evenodd" fill="#1A709E" d="M314.544,121.473c0,1.262,0,2.143,0,2.646
			s-0.251,0.756-0.755,0.756c-0.126,0-0.252-0.127-0.252-0.252s0-0.629,0-1.26v-1.131c0-2.646-0.253-4.285-0.505-4.912
			c-0.378-0.506-1.008-0.883-1.889-0.883h-3.024c-0.501,0-0.755,0.125-1.131,0.377c-0.253,0.125-0.379,0.756-0.505,1.637
			c0,0.254,0,0.504,0,0.756c0.126,0.125,0.126,0.379,0.252,0.756l0.504,2.016c0,0,0,0.254,0.125,0.377c0,0.252,0,0.504,0,0.629
			c0,0.883-0.125,1.389-0.502,1.639c-0.379,0.125-0.883,0.252-1.638,0.252c-0.125,0-0.251,0-0.379,0c-0.253,0-0.378,0-0.378,0
			c-0.126,0-0.25-0.127-0.25-0.252l0.375-1.889l0.127-0.379c0-0.123,0.126-0.252,0.254-0.252c0.251-0.125,0.502-0.125,0.754-0.125
			c0-0.125,0-0.125,0-0.252c-0.126-0.631-0.252-1.26-0.252-1.764c0-0.631,0.126-1.258,0.252-1.889
			c0.127-0.504,0.504-1.135,0.882-1.637c-0.378,0-0.755-0.252-1.008-0.504c-0.253-0.254-0.377-0.758-0.377-1.26
			c0-0.379,0.124-0.883,0.251-1.387c0.252-0.502,0.379-0.754,0.629-0.754c0.127,0,0.127,0,0.127,0.252
			c0,0.248,0.127,0.377,0.378,0.502c0.126,0.127,0.504,0.127,1.009,0.127h1.511h1.637c1.513,0,2.519,0.504,3.023,1.385
			c0.504,0.881,0.755,2.645,0.755,5.416V121.473z"/>
		<path fill-rule="evenodd" clip-rule="evenodd" fill="#1A709E" d="M295.903,92.252c0,1.008-0.125,1.768-0.378,2.27
			c-0.125,0.633-0.503,1.008-0.882,1.383l-1.258,1.135c-0.506,0.504-0.884,0.885-1.01,1.262c-0.25,0.504-0.376,0.881-0.503,1.383
			c-0.126,0.506-0.378,0.633-0.881,0.633c-0.253,0-0.506,0-0.631-0.127c-0.125-0.125-0.251-0.252-0.251-0.629
			c0-0.379,0.126-0.756,0.505-1.26c0.251-0.506,0.754-1.01,1.385-1.387c1.889-1.133,2.771-2.141,2.771-3.023
			c0-0.504,0-0.879-0.127-1.258c-0.252-0.381-0.376-0.629-0.63-0.758c-0.251,0-0.628-0.125-1.259-0.125h-3.149
			c-0.63,0-1.007-0.125-1.258-0.379c-0.127-0.25-0.252-0.754-0.252-1.637c0-1.385,0-2.518,0.125-3.148
			c0.127-0.631,0.502-1.258,1.008-1.887c-0.127-0.254-0.253-0.379-0.379-0.633c0-0.25-0.127-0.377-0.127-0.502
			c0-0.252,0.127-0.504,0.506-0.883c0.252-0.252,0.502-0.502,0.755-0.502c0.127,0.125,0.378,0.377,0.503,0.627
			c0.129,0.379,0.253,0.758,0.253,0.883c0,0.25,0,0.377-0.253,0.631l-0.628,0.631c-0.253,0.377-0.503,0.754-0.63,1.004
			c-0.127,0.381-0.127,0.76-0.127,1.262c0,0.629,0,1.133,0.254,1.26c0.25,0.25,0.503,0.377,1.006,0.377h1.512h1.513
			c0.882,0,1.511,0.25,1.887,0.756C295.652,90.238,295.903,91.121,295.903,92.252z"/>
		<path fill-rule="evenodd" clip-rule="evenodd" fill="#1A709E" d="M294.014,123.49c0,0.629-0.125,1.008-0.251,1.258
			c-0.253,0.127-0.377,0.254-0.504,0.254s-0.25,0-0.25-0.254c-0.129-0.125-0.129-0.375-0.129-0.754v-0.379l0.129-6.045
			c0-0.25-0.129-0.379-0.129-0.502c-0.125-0.129-0.504-0.254-1.133-0.506c-0.502-0.252-1.008-0.504-1.261-0.883
			c-0.376-0.252-0.503-0.752-0.503-1.385c0-0.25,0-0.629,0.127-1.133c0.126-0.377,0.251-0.629,0.376-0.629
			c0.129-0.127,0.38,0,0.506,0.252c0.125,0.248,0.253,0.502,0.377,0.629c0.252,0.125,0.504,0.125,0.882,0.377
			c0.377,0.127,0.629,0.254,0.881,0.379c0.254,0.25,0.378,0.504,0.378,0.629c0.127,0.254,0.127,0.756,0.127,1.512
			c0.126,0.881,0.126,1.387,0.126,1.512l0.251,5.289V123.49z"/>
		<path fill-rule="evenodd" clip-rule="evenodd" fill="#1A709E" d="M278.9,91.75c0,0.379-0.126,0.756-0.253,1.262
			c-0.124,0.502-0.379,0.754-0.379,0.754c-0.123,0.125-0.25,0-0.626-0.127c-0.254-0.252-0.506-0.379-0.759-0.627l-0.627,1.383
			l0.627,0.629c0.505,0.506,1.009,1.01,1.385,1.641c0.379,0.504,0.506,1.131,0.506,1.76c0,0.506-0.127,1.01-0.251,1.387
			c-0.255,0.506-0.378,0.756-0.631,0.756c-0.126,0.127-0.25,0.127-0.25-0.125c-0.254-0.881-0.631-1.512-1.136-2.268
			c-0.631-0.631-1.636-1.51-3.148-2.645l-1.889-1.51c-0.252,0.123-0.252,0.375-0.38,0.502c-0.126,0.252-0.126,0.502-0.126,0.633
			c0,0.5,0,0.879,0.254,1.004c0.125,0.25,0.378,0.506,0.755,0.881c0.379,0.504,0.631,0.756,0.757,1.008
			c0.126,0.254,0.249,0.631,0.249,1.008c0,0.629-0.249,1.01-0.627,1.262c-0.254,0.125-0.756,0.25-1.262,0.25h-1.006
			c-0.377,0-0.505-0.125-0.505-0.25c0,0,0.128-0.127,0.253-0.379c0.127-0.254,0.127-0.377,0.127-0.504l-0.127-0.883
			c-0.125-0.377-0.125-0.627-0.253-0.756c0-0.123,0-0.377,0-0.627c0-0.504,0.128-1.01,0.253-1.514c0.127-0.5,0.504-1.26,1.132-2.141
			c-0.376-0.379-0.628-0.881-0.88-1.262c-0.125-0.502-0.252-0.881-0.252-1.258c0-0.756,0.127-1.26,0.377-1.891
			c0.253-0.502,0.505-0.881,0.755-1.004c0.126,0,0.254,0.123,0.254,0.377c0.252,0.756,0.505,1.51,0.88,2.014
			c0.254,0.504,0.881,1.135,2.017,2.143l0.882,0.754l0.756,0.633l0.631-1.387c-0.253-0.254-0.507-0.629-0.758-0.883
			c-0.124-0.379-0.251-0.629-0.251-1.008c0-0.504,0.251-1.133,0.63-1.639c0.379-0.627,0.755-0.881,1.008-1.004
			c0.252,0.123,0.252,0.25,0.252,0.502v0.252c-0.127,0.127-0.127,0.25,0,0.379c0,0.125,0.251,0.252,0.503,0.629
			c0.252,0.25,0.502,0.629,0.757,0.881C278.774,91.121,278.9,91.371,278.9,91.75z"/>
		<path fill-rule="evenodd" clip-rule="evenodd" fill="#1A709E" d="M277.643,122.355v1.387c0,0.377-0.128,0.631-0.254,0.881
			c-0.252,0.125-0.377,0.252-0.505,0.252c-0.125,0-0.252,0-0.377-0.127c0-0.25,0-0.629,0-1.385v-3.652
			c0-1.385-0.124-2.391-0.377-2.643c-0.126-0.379-0.756-0.631-1.638-0.631h-2.77c-0.505,0-0.882,0-1.387-0.252
			c-0.377-0.252-0.504-0.758-0.504-1.512c0-0.254,0-0.756,0.252-1.26c0.125-0.629,0.378-0.881,0.63-0.881
			c0,0,0.127,0.123,0.127,0.252c0.123,0.502,0.502,0.629,1.257,0.629h2.269c0.126,0,0.377,0,0.63,0
			c0.253,0.125,0.629,0.125,1.134,0.252c0.377,0,0.754,0.629,1.007,1.51c0.252,0.883,0.378,2.016,0.378,3.15L277.643,122.355z"/>
		<path fill-rule="evenodd" clip-rule="evenodd" fill="#1A709E" d="M258.874,99.055c0,0.629-0.126,1.01-0.251,1.262
			c-0.253,0.25-0.379,0.377-0.507,0.377c-0.123,0-0.248-0.127-0.248-0.252c-0.127-0.125-0.127-0.377-0.127-0.881v-0.379l0.127-6.047
			c0-0.123-0.127-0.252-0.127-0.377c-0.127-0.125-0.506-0.379-1.134-0.629c-0.503-0.254-1.008-0.504-1.262-0.758
			c-0.376-0.377-0.501-0.754-0.501-1.385c0-0.377,0-0.754,0.125-1.133c0.127-0.504,0.251-0.754,0.376-0.754
			c0.127,0,0.38,0.123,0.506,0.377c0.127,0.25,0.253,0.377,0.378,0.504c0.251,0.123,0.504,0.252,0.881,0.377
			c0.379,0.127,0.631,0.252,0.883,0.504c0.251,0.25,0.377,0.377,0.377,0.629c0.126,0.252,0.126,0.756,0.126,1.514
			c0.127,0.754,0.127,1.256,0.127,1.51l0.251,5.291V99.055z"/>
		<path fill-rule="evenodd" clip-rule="evenodd" fill="#1A709E" d="M262.022,121.473c0,1.262,0,2.143,0,2.646
			c-0.124,0.504-0.378,0.756-0.756,0.756c-0.126,0-0.253-0.127-0.253-0.252s-0.126-0.629-0.126-1.26v-1.131
			c0-2.646-0.125-4.285-0.376-4.912c-0.379-0.506-1.008-0.883-1.889-0.883H255.6c-0.503,0-0.882,0.125-1.135,0.377
			c-0.249,0.125-0.376,0.756-0.503,1.637c0,0.254,0,0.504,0,0.756c0.127,0.125,0.127,0.379,0.254,0.756l0.502,2.016
			c0,0,0,0.254,0.127,0.377c0,0.252,0,0.504,0,0.629c0,0.883-0.127,1.389-0.504,1.639c-0.379,0.125-1.006,0.252-1.639,0.252
			c-0.126,0-0.251,0-0.378,0c-0.251,0-0.376,0-0.376,0c-0.128,0-0.255-0.127-0.255-0.252l0.38-1.889v-0.379
			c0.126-0.123,0.251-0.252,0.378-0.252c0.251-0.125,0.377-0.125,0.631-0.125c0.125-0.125,0.125-0.125,0.125-0.252
			c-0.125-0.631-0.253-1.26-0.253-1.764c0-0.631,0.128-1.258,0.253-1.889c0.128-0.504,0.503-1.135,0.882-1.637
			c-0.379,0-0.754-0.252-1.007-0.504c-0.254-0.254-0.38-0.758-0.38-1.26c0-0.379,0.126-0.883,0.252-1.387
			c0.253-0.502,0.381-0.754,0.629-0.754c0,0,0.127,0,0.127,0.252c0,0.248,0.126,0.377,0.379,0.502
			c0.127,0.127,0.503,0.127,1.008,0.127h1.511h1.637c1.513,0,2.519,0.504,3.022,1.385c0.505,0.881,0.756,2.645,0.756,5.416V121.473z
			"/>
		<path fill-rule="evenodd" clip-rule="evenodd" fill="#1A709E" d="M244.516,96.914c0,1.26,0,2.141,0,2.646
			c0,0.629-0.252,0.881-0.755,0.881c-0.126,0-0.253-0.125-0.253-0.377c0-0.127,0-0.504,0-1.26v-1.133
			c0-2.648-0.251-4.285-0.503-4.789c-0.378-0.631-1.008-0.879-1.889-0.879h-3.024c-0.502,0-0.881,0-1.135,0.248
			c-0.25,0.254-0.377,0.76-0.501,1.639c0,0.379,0,0.631,0,0.758c0.124,0.125,0.124,0.375,0.251,0.756l0.504,2.014
			c0,0.125,0,0.254,0.127,0.506c0,0.123,0,0.377,0,0.627c0,0.76-0.127,1.26-0.505,1.514c-0.377,0.252-0.883,0.377-1.638,0.377
			c-0.127,0-0.251,0-0.376,0c-0.253,0-0.38,0-0.38,0c-0.126,0-0.252-0.125-0.252-0.377l0.379-1.891l0.126-0.379
			c0-0.123,0.127-0.123,0.252-0.252c0.251,0,0.378-0.125,0.754-0.125c0,0,0-0.127,0-0.25c-0.123-0.631-0.251-1.135-0.251-1.764
			c0-0.631,0.128-1.262,0.251-1.766c0.127-0.627,0.505-1.133,0.882-1.635c-0.377-0.129-0.755-0.254-1.005-0.506
			c-0.253-0.377-0.38-0.756-0.38-1.387c0-0.377,0.127-0.879,0.252-1.385c0.251-0.504,0.378-0.754,0.63-0.754
			c0,0,0.126,0.127,0.126,0.25c0,0.254,0.127,0.379,0.377,0.504c0.127,0.127,0.505,0.254,1.01,0.254h1.511h1.636
			c1.513,0,2.521,0.377,3.024,1.258c0.503,0.883,0.755,2.645,0.755,5.416V96.914z"/>
		<path fill-rule="evenodd" clip-rule="evenodd" fill="#1A709E" d="M244.264,128.275c0,0.379-0.126,0.758-0.503,1.135
			c-0.377,0.502-0.756,0.629-1.009,0.629c-0.252,0-0.252,0-0.252-0.127c-0.127-0.125-0.127-0.375-0.127-0.754v-0.381v-12.34h-6.296
			c-0.502,0-0.882,0-1.258-0.252c-0.38-0.127-0.506-0.631-0.506-1.387c0-0.379,0-0.881,0.253-1.385
			c0.126-0.504,0.378-0.758,0.629-0.758c0.127,0,0.252,0,0.252,0.129c0,0.125,0,0.125,0,0.125c0.128,0.252,0.251,0.504,0.503,0.504
			c0.127,0.125,0.506,0.125,0.883,0.125h5.038c0.881,0,1.386,0.127,1.764,0.252c0.379,0.254,0.629,0.758,0.629,1.512
			c0,0.252-0.126,0.631-0.126,0.756c-0.124,0.252-0.251,0.379-0.503,0.504c-0.127,0.127-0.251,0.252-0.251,0.629v1.26l0.754,7.432
			v0.254l0.126,1.131V128.275z"/>
		<path fill-rule="evenodd" clip-rule="evenodd" fill="#1A709E" d="M329.281,46.408c0,0.252,0,0.757-0.253,1.133
			c-0.126,0.505-0.252,0.756-0.503,0.756c-0.126,0-0.126,0-0.126-0.123c-0.127-0.128-0.127-0.381-0.127-0.885
			c-0.125-0.377-0.125-0.754-0.251-1.133c0-0.377-0.128-0.504-0.253-0.504c-0.251,0-0.251,0-0.377,0.127
			c-0.126,0.125-0.251,0.377-0.378,0.756c-0.126,0.377-0.378,0.754-0.505,1.133l-0.125,0.25c-0.126,0.256-0.378,0.256-0.505,0.256
			h-2.265c-0.379,0-0.507,0-0.507-0.256l0.128-0.25l0.88-1.889c0-0.252,0.127-0.506,0.254-0.506
			c0.126-0.125,0.377-0.125,0.629-0.125h2.143h0.502c0.126,0,0.126-0.125,0.126-0.378c0-0.25,0-0.63-0.126-1.134
			c0-0.502-0.125-0.756-0.125-0.882c0-0.376,0.125-0.629,0.125-0.88c0-0.253,0.126-0.629,0.126-0.883l0.125-0.379
			c0-0.25-0.125-0.377-0.376-0.503c-0.758-0.25-1.386-0.503-1.763-0.755c-0.506-0.252-0.631-0.883-0.631-1.765
			c0-0.375,0-0.755,0.125-1.257c0.128-0.379,0.251-0.633,0.38-0.633c0.126,0,0.25,0,0.377,0.129
			c0.126,0.377,0.252,0.627,0.378,0.754c0.125,0.126,0.252,0.252,0.63,0.252c0.88,0.254,1.386,0.504,1.637,0.755
			c0.252,0.253,0.252,0.505,0.252,0.882c0,0.127,0,0.254,0,0.379c0,0.126,0,0.378-0.126,0.504c0,0.252-0.126,0.631-0.251,0.881
			c0,0.377-0.126,0.756-0.126,1.136c0,0.503,0.126,1.132,0.126,1.509c0.125,0.505,0.251,1.008,0.377,1.514
			c0.126,0.503,0.253,1.007,0.379,1.258C329.281,45.904,329.281,46.156,329.281,46.408z"/>
		<path fill-rule="evenodd" clip-rule="evenodd" fill="#1A709E" d="M313.284,39.86c0,1.009-0.125,1.762-0.252,2.266
			c-0.251,0.505-0.628,1.009-1.008,1.386l-1.259,1.135c-0.504,0.377-0.883,0.881-1.009,1.258c-0.251,0.504-0.376,0.883-0.504,1.385
			c-0.124,0.379-0.377,0.629-0.881,0.629c-0.253,0-0.502,0-0.629-0.125c-0.125-0.125-0.253-0.376-0.253-0.628
			c0-0.378,0.128-0.757,0.504-1.261c0.378-0.503,0.758-1.007,1.387-1.384c1.889-1.135,2.77-2.142,2.77-3.148
			c0-0.38,0-0.759-0.126-1.136c-0.125-0.376-0.378-0.629-0.628-0.756c-0.253-0.125-0.631-0.125-1.261-0.125h-3.147
			c-0.63,0-1.009-0.126-1.261-0.378c-0.126-0.251-0.252-0.755-0.252-1.638c0-1.51,0-2.521,0.126-3.148
			c0.126-0.627,0.503-1.26,1.008-2.014c-0.126-0.129-0.251-0.379-0.378-0.505c0-0.251-0.127-0.378-0.127-0.505
			c0-0.252,0.127-0.629,0.505-0.882c0.253-0.377,0.504-0.503,0.755-0.503c0.126,0.126,0.379,0.252,0.506,0.631
			c0.249,0.377,0.249,0.629,0.249,0.881c0,0.127,0,0.378-0.249,0.629l-0.631,0.63c-0.251,0.378-0.504,0.63-0.63,1.011
			c-0.126,0.375-0.126,0.751-0.126,1.255c0,0.631,0.126,1.011,0.252,1.262c0.253,0.126,0.629,0.253,1.008,0.253h1.638h1.385
			c0.881,0,1.513,0.376,1.889,0.882C313.032,37.72,313.284,38.599,313.284,39.86z"/>
		<path fill-rule="evenodd" clip-rule="evenodd" fill="#1A709E" d="M296.66,38.599c0,0.252,0,0.378-0.127,0.504l-0.755,1.889
			l-0.378,1.763c-0.504,2.143-0.757,3.401-0.757,3.78c-0.125,0.377-0.252,0.63-0.503,0.754c-0.252,0.252-0.504,0.504-1.009,0.757
			c-0.504,0.251-0.881,0.504-1.385,0.755l-3.399,2.143l-0.127,0.125c-0.125,0-0.253,0-0.253,0c-0.126-0.125-0.126-0.376-0.126-0.755
			c0-0.505,0-0.756,0-0.883c0-0.25,0-0.504,0-0.756c0-0.501,0.254-0.757,0.632-1.134c0.502-0.252,0.755-0.376,1.007-0.502
			c0.25-0.252,0.378-0.252,0.503-0.379c-0.503-1.387-0.755-2.896-0.755-4.534c0-0.63,0.127-1.009,0.127-1.257
			c0-0.256,0-0.633,0.125-1.137c-0.758-0.125-1.26-0.377-1.513-0.629c-0.251-0.377-0.251-0.881-0.251-1.383
			c0-0.631,0-1.137,0.125-1.514c0.254-0.506,0.379-0.631,0.632-0.631c0,0,0.125,0,0.125,0.125c0.124,0,0.124,0,0.124,0.129
			c0,0.125,0.127,0.377,0.379,0.504c0.127,0.123,0.379,0.25,0.757,0.25c0.628,0.252,1.008,0.506,1.134,0.756
			c0.253,0.251,0.377,0.756,0.377,1.512c0,0.378,0,0.629,0,0.881c-0.124,0.254-0.124,0.378-0.252,0.378
			c-0.251,0-0.378,0-0.631-0.124c-0.25,0-0.376,0-0.503,0c0,0.377,0,0.755,0,1.26c0,0.88,0.127,1.635,0.378,2.391
			c0.125,0.884,0.505,1.637,0.756,2.395c0.883-0.504,1.511-0.883,2.015-1.134c0.505-0.377,0.882-0.757,1.009-1.134
			c0,0,0-0.378,0.251-0.883c0.252-0.628,0.505-1.133,0.757-1.635c0.124-0.377,0.124-0.505,0.124-0.758
			c0-0.125-0.124-0.252-0.25-0.252c-0.631-0.376-1.134-0.756-1.386-1.133c-0.378-0.377-0.505-0.881-0.505-1.383
			c0-0.505,0.127-1.011,0.378-1.514c0.253-0.377,0.504-0.631,0.758-0.631c0.124,0,0.124,0,0.251,0.254c0,0.125,0,0.377,0.252,0.504
			c0.126,0.123,0.252,0.376,0.502,0.502c0.38,0.125,0.757,0.38,1.009,0.755C296.533,37.843,296.66,38.222,296.66,38.599z"/>
		<path fill-rule="evenodd" clip-rule="evenodd" fill="#1A709E" d="M275.121,38.977c0,0.126,0,0.378,0,0.883
			c0,0.376,0,0.753,0,0.881c0,0.251,0,0.505,0,0.755c-0.125,0.379-0.125,0.63-0.25,0.883c0,0.252-0.128,0.376-0.379,0.376
			c-0.126,0-0.252-0.124-0.252-0.376l0.126-1.133c0-0.505-0.126-0.883-0.252-1.01c-0.127-0.25-0.503-0.376-1.009-0.629
			c-0.502-0.127-0.882-0.252-1.133-0.504c-0.25-0.126-0.377-0.631-0.377-1.383c0-0.381,0-0.76,0.127-1.387
			c0.126-0.504,0.25-0.758,0.501-0.758c0.128,0,0.254,0.125,0.254,0.254c0.126,0.125,0.252,0.251,0.378,0.377
			c0.123,0.127,0.377,0.25,0.63,0.377c0.629,0.126,1.132,0.377,1.258,0.756C274.996,37.843,275.121,38.347,275.121,38.977z"/>
		<path fill-rule="evenodd" clip-rule="evenodd" fill="#1A709E" d="M259.378,45.527c0,0.125,0,0.377,0,0.629
			c0,0.126-0.125,0.504-0.251,0.883c0,0.378-0.126,0.629-0.126,0.754c-0.127,0.125-0.253,0.125-0.378,0.125h-3.778
			c-0.253,0-0.38,0-0.504,0l-0.125-0.125c0-0.125,0-0.252,0-0.376l0.754-1.765c0.127-0.251,0.376-0.379,0.376-0.379
			c0.127-0.125,0.38-0.125,0.759-0.125h1.889c-0.125-0.754-0.252-1.512-0.252-2.518c0-0.127,0-0.252,0-0.505c0-0.126,0-0.378,0-0.63
			l0.127-0.755v-0.378c0-0.253,0-0.377-0.127-0.503c-0.127-0.128-0.506-0.253-1.008-0.38c-0.38-0.125-0.882-0.251-1.261-0.629
			c-0.252-0.252-0.503-0.883-0.503-1.512c0-0.379,0.127-0.756,0.251-1.133c0.125-0.506,0.252-0.631,0.505-0.631
			c0.126,0,0.126,0,0.126,0c0.127,0,0.127,0.125,0.253,0.254c0,0.251,0.125,0.377,0.249,0.504c0.254,0.123,0.507,0.25,1.008,0.376
			c0.507,0.126,0.883,0.251,1.135,0.506c0.252,0.25,0.505,0.505,0.505,1.007c0,0.125-0.127,0.25-0.127,0.504
			c0,0.125,0,0.377-0.126,0.629c0,0.252-0.125,0.631-0.252,1.008c0,0.25,0,0.506,0,0.629c0,0.38,0,0.63,0,0.756
			c0,0,0,0.378,0.127,0.756c0.251,0.756,0.504,1.513,0.63,2.017C259.378,45.023,259.378,45.401,259.378,45.527z"/>
		<path fill-rule="evenodd" clip-rule="evenodd" fill="#1A709E" d="M241.116,38.977c0,0.126,0,0.378,0,0.883
			c0,0.376,0,0.753,0,0.881c0,0.251,0,0.505,0,0.755c-0.126,0.379-0.126,0.63-0.252,0.883c0,0.252-0.255,0.376-0.378,0.376
			c-0.252,0-0.252-0.124-0.252-0.376v-1.133c0-0.505,0-0.883-0.126-1.01c-0.253-0.25-0.506-0.376-1.008-0.629
			c-0.505-0.127-0.882-0.252-1.136-0.504c-0.25-0.126-0.501-0.631-0.501-1.383c0-0.381,0.126-0.76,0.251-1.387
			c0.125-0.504,0.25-0.758,0.504-0.758c0.125,0,0.254,0.125,0.254,0.254c0.123,0.125,0.249,0.251,0.375,0.377
			c0,0.127,0.253,0.25,0.63,0.377c0.631,0.126,1.009,0.377,1.259,0.756C240.99,37.843,241.116,38.347,241.116,38.977z"/>
	</g>
	<g>
		
			<rect x="230.535" y="27.892" fill-rule="evenodd" clip-rule="evenodd" fill="none" stroke="#96151B" width="104.162" height="104.163"/>
		
			<line fill-rule="evenodd" clip-rule="evenodd" fill="none" stroke="#96151B" x1="247.916" y1="28.522" x2="247.916" y2="132.055"/>
		
			<line fill-rule="evenodd" clip-rule="evenodd" fill="none" stroke="#96151B" x1="265.298" y1="28.522" x2="265.298" y2="132.055"/>
		
			<line fill-rule="evenodd" clip-rule="evenodd" fill="none" stroke="#96151B" x1="282.554" y1="28.522" x2="282.554" y2="132.055"/>
		
			<line fill-rule="evenodd" clip-rule="evenodd" fill="none" stroke="#96151B" x1="299.934" y1="28.522" x2="299.934" y2="132.055"/>
		
			<line fill-rule="evenodd" clip-rule="evenodd" fill="none" stroke="#96151B" x1="317.316" y1="28.522" x2="317.316" y2="132.055"/>
		<line fill-rule="evenodd" clip-rule="evenodd" fill="none" stroke="#96151B" x1="231.038" y1="54.091" x2="334.697" y2="54.091"/>
		<line fill-rule="evenodd" clip-rule="evenodd" fill="none" stroke="#96151B" x1="231.038" y1="80.162" x2="334.697" y2="80.162"/>
		
			<line fill-rule="evenodd" clip-rule="evenodd" fill="none" stroke="#96151B" x1="231.038" y1="106.234" x2="334.697" y2="106.234"/>
	</g>
	<g>
		<g>
			<path fill-rule="evenodd" clip-rule="evenodd" fill="#FFFFFF" stroke="#96151B" stroke-width="0.7616" d="M313.284,54.091
				L313.284,54.091c2.269-0.127,3.906-1.891,4.032-4.032l0,0l0,0c0.124,2.142,1.888,3.905,4.028,4.032l0,0l0,0
				c-2.141,0.125-3.904,1.763-4.028,4.029l0,0l0,0C317.316,55.981,315.553,54.216,313.284,54.091L313.284,54.091z"/>
			<path fill-rule="evenodd" clip-rule="evenodd" fill="#FFFFFF" stroke="#96151B" stroke-width="0.7616" d="M278.647,54.091
				L278.647,54.091c2.143-0.127,3.906-1.891,3.906-4.032l0,0l0,0c0.125,2.142,1.888,3.905,4.03,4.032l0,0l0,0
				c-2.143,0.125-3.905,1.763-3.905,4.029h-0.125l0,0C282.554,55.981,280.79,54.216,278.647,54.091L278.647,54.091z"/>
			<path fill-rule="evenodd" clip-rule="evenodd" fill="#FFFFFF" stroke="#96151B" stroke-width="0.7616" d="M295.903,54.091h0.126
				c2.142-0.127,3.904-1.891,3.904-4.032l0,0l0,0c0.126,2.142,1.89,3.905,4.031,4.032l0,0l0,0c-2.142,0.125-3.905,1.763-4.031,4.029
				l0,0l0,0c0-2.14-1.763-3.904-3.904-4.029H295.903z"/>
			<path fill-rule="evenodd" clip-rule="evenodd" fill="#FFFFFF" stroke="#96151B" stroke-width="0.7616" d="M261.267,54.091
				L261.267,54.091c2.143-0.127,3.906-1.891,4.031-4.032l0,0l0,0c0,2.142,1.764,3.905,3.904,4.032l0,0l0,0
				c-2.141,0.125-3.904,1.763-3.904,4.029l0,0l0,0C265.173,55.981,263.409,54.216,261.267,54.091L261.267,54.091z"/>
			<path fill-rule="evenodd" clip-rule="evenodd" fill="#FFFFFF" stroke="#96151B" stroke-width="0.7616" d="M243.887,54.091
				L243.887,54.091c2.142-0.127,3.904-1.891,4.029-4.032l0,0l0,0c0,2.142,1.764,3.905,4.032,4.032l0,0l0,0
				c-2.269,0.125-4.032,1.763-4.032,4.029l0,0l0,0C247.791,55.981,246.028,54.216,243.887,54.091L243.887,54.091z"/>
		</g>
		<g>
			<path fill-rule="evenodd" clip-rule="evenodd" fill="#FFFFFF" stroke="#96151B" stroke-width="0.7622" d="M313.284,80.162
				L313.284,80.162c2.269-0.125,3.906-1.889,4.032-4.031l0,0l0,0c0.124,2.143,1.888,3.906,4.028,4.031l0,0l0,0
				c-2.141,0-3.904,1.764-4.028,4.031l0,0l0,0C317.316,81.926,315.553,80.289,313.284,80.162L313.284,80.162z"/>
			<path fill-rule="evenodd" clip-rule="evenodd" fill="#FFFFFF" stroke="#96151B" stroke-width="0.7622" d="M278.647,80.162
				L278.647,80.162c2.143-0.125,3.906-1.889,3.906-4.031l0,0l0,0c0.125,2.143,1.888,3.906,4.03,4.031l0,0l0,0
				c-2.143,0-3.905,1.764-3.905,4.031h-0.125l0,0C282.554,81.926,280.79,80.289,278.647,80.162L278.647,80.162z"/>
			<path fill-rule="evenodd" clip-rule="evenodd" fill="#FFFFFF" stroke="#96151B" stroke-width="0.7622" d="M295.903,80.162h0.126
				c2.142-0.125,3.904-1.889,3.904-4.031l0,0l0,0c0.126,2.143,1.89,3.906,4.031,4.031l0,0l0,0c-2.142,0-3.905,1.764-4.031,4.031l0,0
				l0,0c0-2.268-1.763-3.904-3.904-4.031H295.903z"/>
			<path fill-rule="evenodd" clip-rule="evenodd" fill="#FFFFFF" stroke="#96151B" stroke-width="0.7622" d="M261.267,80.162
				L261.267,80.162c2.143-0.125,3.906-1.889,4.031-4.031l0,0l0,0c0,2.143,1.764,3.906,3.904,4.031l0,0l0,0
				c-2.141,0-3.904,1.764-3.904,4.031l0,0l0,0C265.173,81.926,263.409,80.289,261.267,80.162L261.267,80.162z"/>
			<path fill-rule="evenodd" clip-rule="evenodd" fill="#FFFFFF" stroke="#96151B" stroke-width="0.7616" d="M243.887,80.162
				L243.887,80.162c2.142-0.125,3.904-1.889,4.029-4.031l0,0l0,0c0,2.143,1.764,3.906,4.032,4.031l0,0l0,0
				c-2.269,0-4.032,1.764-4.032,4.031l0,0l0,0C247.791,81.926,246.028,80.289,243.887,80.162L243.887,80.162z"/>
		</g>
		<g>
			<path fill-rule="evenodd" clip-rule="evenodd" fill="#FFFFFF" stroke="#96151B" stroke-width="0.7616" d="M313.284,106.234
				L313.284,106.234c2.269-0.125,3.906-1.889,4.032-4.031l0,0l0,0c0.124,2.143,1.888,3.906,4.028,4.031l0,0l0,0
				c-2.141,0-3.904,1.762-4.028,3.904v0.125v-0.125C317.316,107.996,315.553,106.234,313.284,106.234L313.284,106.234z"/>
			<path fill-rule="evenodd" clip-rule="evenodd" fill="#FFFFFF" stroke="#96151B" stroke-width="0.7616" d="M278.647,106.234
				L278.647,106.234c2.143-0.125,3.906-1.889,3.906-4.031l0,0l0,0c0.125,2.143,1.888,3.906,4.03,4.031l0,0l0,0
				c-2.143,0-3.905,1.762-3.905,3.904l-0.125,0.125v-0.125C282.554,107.996,280.79,106.234,278.647,106.234L278.647,106.234z"/>
			<path fill-rule="evenodd" clip-rule="evenodd" fill="#FFFFFF" stroke="#96151B" stroke-width="0.7616" d="M295.903,106.234h0.126
				c2.142-0.125,3.904-1.889,3.904-4.031l0,0l0,0c0.126,2.143,1.89,3.906,4.031,4.031l0,0l0,0c-2.142,0-3.905,1.762-4.031,3.904
				v0.125v-0.125c0-2.143-1.763-3.904-3.904-3.904H295.903z"/>
			<path fill-rule="evenodd" clip-rule="evenodd" fill="#FFFFFF" stroke="#96151B" stroke-width="0.7616" d="M261.267,106.234
				L261.267,106.234c2.143-0.125,3.906-1.889,4.031-4.031l0,0l0,0c0,2.143,1.764,3.906,3.904,4.031l0,0l0,0
				c-2.141,0-3.904,1.762-3.904,3.904v0.125v-0.125C265.173,107.996,263.409,106.234,261.267,106.234L261.267,106.234z"/>
			<path fill-rule="evenodd" clip-rule="evenodd" fill="#FFFFFF" stroke="#96151B" stroke-width="0.7622" d="M243.887,106.234
				L243.887,106.234c2.142-0.125,3.904-1.889,4.029-4.031l0,0l0,0c0,2.143,1.764,3.906,4.032,4.031l0,0l0,0
				c-2.269,0-4.032,1.762-4.032,3.904v0.125v-0.125C247.791,107.996,246.028,106.234,243.887,106.234L243.887,106.234z"/>
		</g>
	</g>
</g>
<rect y="7" fill="none" width="340.157" height="127.559"/>
</svg>
