<svg id="Layer_1" data-name="Layer 1" xmlns="http://www.w3.org/2000/svg" viewBox="0 0 25 25.83"><defs><style>.cls-1{fill:#68abcc;}</style></defs><title>phone</title><g id="Desktop"><g id="contact"><g id="Group-6"><g id="Group-3"><g id="phone"><path id="Path" class="cls-1" d="M24.44,20.43l-3.86-4a2,2,0,0,0-2.84.06l-1.94,2-.39-.22a19.29,19.29,0,0,1-4.68-3.5A20.13,20.13,0,0,1,7.34,9.92l-.21-.38L8.44,8.19l.64-.67a2.13,2.13,0,0,0,.05-2.94L5.27.58A2,2,0,0,0,2.43.64L1.34,1.77l0,0A6.47,6.47,0,0,0,.48,3.44,6.91,6.91,0,0,0,.08,5.1C-.43,9.48,1.5,13.48,6.74,18.9c7.25,7.51,13.09,6.94,13.34,6.91a5.89,5.89,0,0,0,1.61-.42,6,6,0,0,0,1.57-.92l0,0,1.1-1.12A2.14,2.14,0,0,0,24.44,20.43Z" transform="translate(0 0)"/></g></g></g></g></g></svg>