<svg id="Layer_1" data-name="Layer 1" xmlns="http://www.w3.org/2000/svg" xmlns:xlink="http://www.w3.org/1999/xlink" viewBox="0 0 27.9 19.54"><defs><style>.cls-1{fill:#fff;}.cls-1,.cls-3{fill-rule:evenodd;}.cls-2{mask:url(#mask);}.cls-3{fill:#d55759;}</style><mask id="mask" x="0" y="0" width="27.9" height="19.54" maskUnits="userSpaceOnUse"><g transform="translate(-0.64 0)"><g id="mask-2"><polygon id="path-1" class="cls-1" points="0.64 0 28.54 0 28.54 19.54 0.64 19.54 0.64 0"/></g></g></mask></defs><title>video-icon-red</title><g id="Desktop"><g id="search"><g id="file-type-"><g id="video-btn"><g id="video-icon"><g class="cls-2"><path id="Fill-1" class="cls-3" d="M11.81,5.59V14l7.26-4.18Zm2.78,14a82.93,82.93,0,0,1-10.91-.6,3.51,3.51,0,0,1-2.46-2.46A35.91,35.91,0,0,1,.65,9.77a36.85,36.85,0,0,1,.57-6.71A3.55,3.55,0,0,1,3.68.58,84.66,84.66,0,0,1,14.59,0,81.3,81.3,0,0,1,25.51.6,3.53,3.53,0,0,1,28,3.06a35.36,35.36,0,0,1,.57,6.73A37.87,37.87,0,0,1,28,16.51,3.5,3.5,0,0,1,25.51,19a84.73,84.73,0,0,1-10.92.58Z" transform="translate(-0.64 0)"/></g></g></g></g></g></g></svg>