<svg id="Layer_1" data-name="Layer 1" xmlns="http://www.w3.org/2000/svg" xmlns:xlink="http://www.w3.org/1999/xlink" viewBox="0 0 44 44"><defs><style>.cls-1{fill:#fff;}.cls-1,.cls-2{fill-rule:evenodd;}.cls-2{fill:#d55759;}.cls-3{mask:url(#mask);}</style><mask id="mask" x="8" y="12" width="27.57" height="19.54" maskUnits="userSpaceOnUse"><g transform="translate(0 0)"><g id="mask-2"><polygon id="path-1" class="cls-1" points="8 12 35.57 12 35.57 31.54 8 31.54 8 12"/></g></g></mask></defs><title>video-icon-list</title><g id="Symbols"><g id="book-result"><g id="video-icon-c"><path class="cls-2" d="M22,0h0A22,22,0,0,1,44,22h0A22,22,0,0,1,22,44h0A22,22,0,0,1,0,22H0A22,22,0,0,1,22,0Z" transform="translate(0 0)"/><g id="Group-4"><g class="cls-3"><path id="Fill-1" class="cls-1" d="M19,17.59V26l7.17-4.18Zm2.74,14A81,81,0,0,1,11,30.94a3.47,3.47,0,0,1-2.43-2.46A37.68,37.68,0,0,1,8,21.77a37.76,37.76,0,0,1,.57-6.71A3.55,3.55,0,0,1,11,12.58,82.67,82.67,0,0,1,21.78,12a79.38,79.38,0,0,1,10.79.59A3.51,3.51,0,0,1,35,15.06a36.19,36.19,0,0,1,.57,6.73A37.87,37.87,0,0,1,35,28.51,3.46,3.46,0,0,1,32.57,31a82.73,82.73,0,0,1-10.79.58Z" transform="translate(0 0)"/></g></g></g></g></g></svg>