<svg id="Layer_1" data-name="Layer 1" xmlns="http://www.w3.org/2000/svg" xmlns:xlink="http://www.w3.org/1999/xlink" viewBox="0 0 20.68 14.66"><defs><style>.cls-1{fill:#fff;fill-rule:evenodd;}.cls-2{mask:url(#mask);}</style><mask id="mask" x="0" y="0" width="20.68" height="14.66" maskUnits="userSpaceOnUse"><g transform="translate(0 0)"><g id="mask-2"><polygon id="path-1" class="cls-1" points="0 0 20.68 0 20.68 14.66 0 14.66 0 0"/></g></g></mask></defs><title>video-icon-white</title><g id="Desktop"><g id="home"><g id="new"><g id="Group-7"><g id="video-icon-c"><g id="Group-4"><g class="cls-2"><path id="Fill-1" class="cls-1" d="M8.28,4.19v6.28l5.38-3.14Zm2.06,10.46a59,59,0,0,1-8.09-.44A2.61,2.61,0,0,1,.43,12.36a27.34,27.34,0,0,1-.43-5,27.34,27.34,0,0,1,.43-5A2.63,2.63,0,0,1,2.25.44,62.48,62.48,0,0,1,10.34,0a60.86,60.86,0,0,1,8.09.45A2.61,2.61,0,0,1,20.25,2.3a27.44,27.44,0,0,1,.43,5,28.35,28.35,0,0,1-.43,5,2.58,2.58,0,0,1-1.82,1.84,60.83,60.83,0,0,1-8.09.43Z" transform="translate(0 0)"/></g></g></g></g></g></g></g></svg>