<svg id="Layer_1" data-name="Layer 1" xmlns="http://www.w3.org/2000/svg" viewBox="0 0 21.43 14.62"><defs><style>.cls-1{fill:#f8f5f1;}</style></defs><title>sound-volume</title><path class="cls-1" d="M8.9.21,5.77,2.67a1.59,1.59,0,0,0-.53-.08H2A1.91,1.91,0,0,0,.12,4.49v5.56A1.91,1.91,0,0,0,2,12h3.2a2.42,2.42,0,0,0,.47,0l3.2,2.5a1,1,0,0,0,.62.22,1,1,0,0,0,1-1V1a1,1,0,0,0-.21-.62A1,1,0,0,0,8.9.21Z" transform="translate(-0.12 0)"/><path class="cls-1" d="M18.6,0,17.53,1.08a9.07,9.07,0,0,1,.09,12.46l1.07,1.06h0A10.58,10.58,0,0,0,18.6,0Z" transform="translate(-0.12 0)"/><path class="cls-1" d="M12.53,6.05a2,2,0,0,1,.08,2.51l1.07,1.07A3.53,3.53,0,0,0,13.6,5Z" transform="translate(-0.12 0)"/><path class="cls-1" d="M16,2.54,15,3.6A5.48,5.48,0,0,1,15.07,11l1.06,1.07A7,7,0,0,0,16,2.54Z" transform="translate(-0.12 0)"/></svg>