<svg id="Layer_1" data-name="Layer 1" xmlns="http://www.w3.org/2000/svg" viewBox="0 0 27.15 18.52"><defs><style>.cls-1{fill:#9087a1;}</style></defs><title>audio-icon-purple</title><path class="cls-1" d="M15.88,7.67a2.57,2.57,0,0,1,.1,3.17l1.35,1.35a4.46,4.46,0,0,0-.11-5.87Z" transform="translate(-0.16 0)"/><path class="cls-1" d="M11.27.27l-4,3.11a2.24,2.24,0,0,0-.68-.1H2.57A2.41,2.41,0,0,0,.16,5.69v7a2.41,2.41,0,0,0,2.41,2.41H6.63a2.32,2.32,0,0,0,.59-.07l4.05,3.18a1.32,1.32,0,0,0,.79.27,1.23,1.23,0,0,0,1.21-1.25v-16A1.18,1.18,0,0,0,13,.46,1.23,1.23,0,0,0,11.27.27Z" transform="translate(-0.16 0)"/><path class="cls-1" d="M20.32,3.22,19,4.57A7,7,0,0,1,19.09,14l1.35,1.35A8.85,8.85,0,0,0,20.32,3.22Z" transform="translate(-0.16 0)"/><path class="cls-1" d="M23.56,0,22.21,1.37a11.48,11.48,0,0,1,.11,15.78l1.35,1.34h0A13.39,13.39,0,0,0,23.56,0Z" transform="translate(-0.16 0)"/></svg>