<?xml version="1.0" encoding="UTF-8"?>
<svg width="14px" height="14px" viewBox="0 0 14 14" version="1.1" xmlns="http://www.w3.org/2000/svg" xmlns:xlink="http://www.w3.org/1999/xlink">
    <!-- Generator: Sketch 60 (88103) - https://sketch.com -->
    <title>email</title>
    <desc>Created with Sketch.</desc>
    <g id="Symbols" stroke="none" stroke-width="1" fill="none" fill-rule="evenodd">
        <g id="Footer" transform="translate(-887.000000, -149.000000)" fill="#AEAEAE" fill-rule="nonzero">
            <g id="Group-2" transform="translate(521.000000, 51.000000)">
                <g id="Group">
                    <g id="Group-3" transform="translate(0.000000, 63.000000)">
                        <g id="email" transform="translate(366.000000, 35.000000)">
                            <path d="M12.0666804,1.76499388 C10.7787611,0.588331293 9.17678535,0 7.26363449,0 C5.25252109,0 3.53817658,0.668298654 2.1234822,2.00775194 C0.708787816,3.34720522 0,5.0122399 0,7.00571195 C0,8.91636067 0.674212801,10.5585475 2.01975715,11.9351285 C3.371064,13.3117095 5.18625232,14 7.47108459,14 C8.8483227,14 10.1996296,13.7201142 11.5250051,13.1574867 C11.9571928,12.9747042 12.1675242,12.4834761 11.9917679,12.0522236 L11.9917679,12.0522236 C11.810249,11.6066911 11.2973863,11.4010608 10.8507923,11.5895553 C9.69829183,12.0807834 8.56884133,12.3263974 7.46820333,12.3263974 C5.71640255,12.3263974 4.3593332,11.7980416 3.39699527,10.7384741 C2.43753859,9.68176255 1.95636962,8.43941248 1.95636962,7.01427989 C1.95636962,5.46634027 2.4721136,4.1754386 3.50072031,3.13871889 C4.52644577,2.10485516 5.79131509,1.58506732 7.28956575,1.58506732 C8.66968512,1.58506732 9.83659189,2.01060792 10.7874048,2.86168911 C11.7382177,3.7127703 12.2136242,4.78376173 12.2136242,6.0746634 C12.2136242,6.95716034 11.9946491,7.69400245 11.5595802,8.27947776 C11.1245112,8.86780906 10.6721548,9.15911873 10.2025108,9.15911873 C9.94896069,9.15911873 9.82218563,9.0248878 9.82218563,8.75356997 C9.82218563,8.53365973 9.83947314,8.27662179 9.87116691,7.97960016 L10.4070796,3.63565891 L8.56307882,3.63565891 L8.44494752,4.06119951 C7.97530356,3.68135455 7.45955958,3.49000408 6.90059683,3.49000408 C6.01317143,3.49000408 5.25252109,3.84128927 4.62152706,4.54100367 C3.98765178,5.24071807 3.67359539,6.14320685 3.67359539,7.24561404 C3.67359539,8.32231742 3.95307676,9.19339045 4.51492077,9.85312118 C5.07676477,10.5157079 5.75097757,10.8441452 6.54044042,10.8441452 C7.24634698,10.8441452 7.8485285,10.5499796 8.34986623,9.96450428 C8.72731015,10.5271318 9.28339164,10.8070175 10.0181107,10.8070175 C11.09858,10.8070175 12.0321054,10.3414933 12.818687,9.40758874 C13.6052686,8.47654019 14,7.35128519 14,6.03467972 C14,4.36678907 13.357481,2.94165647 12.0666804,1.76499388 Z M7.81971599,8.33659731 C7.4941346,8.77070583 7.10516567,8.99061608 6.65280922,8.99061608 C6.34451533,8.99061608 6.09672772,8.83068135 5.90944639,8.51081191 C5.7192838,8.19094247 5.62420251,7.79396165 5.62420251,7.31701346 C5.62420251,6.72868217 5.75674007,6.25458996 6.02181519,5.89473684 C6.28689031,5.53488372 6.61535295,5.35210118 7.00720313,5.35210118 C7.34719078,5.35210118 7.64972217,5.48633211 7.91479728,5.75764994 C8.1798724,6.02896777 8.31240996,6.38882089 8.31240996,6.84006528 C8.30952871,7.40269278 8.14529739,7.8996328 7.81971599,8.33659731 Z" id="Shape"></path>
                        </g>
                    </g>
                </g>
            </g>
        </g>
    </g>
</svg>