<?xml version="1.0" encoding="UTF-8"?>
<svg width="14px" height="14px" viewBox="0 0 14 14" version="1.1" xmlns="http://www.w3.org/2000/svg" xmlns:xlink="http://www.w3.org/1999/xlink">
    <!-- Generator: Sketch 60 (88103) - https://sketch.com -->
    <title>facebook</title>
    <desc>Created with Sketch.</desc>
    <g id="Symbols" stroke="none" stroke-width="1" fill="none" fill-rule="evenodd">
        <g id="Footer" transform="translate(-681.000000, -150.000000)" fill="#AEAEAE" fill-rule="nonzero">
            <g id="Group-2" transform="translate(521.000000, 51.000000)">
                <g id="Group">
                    <g id="Group-3" transform="translate(0.000000, 63.000000)">
                        <g id="facebook" transform="translate(160.000000, 36.000000)">
                            <path d="M12.1134239,0 L1.88654183,0 C0.84465428,0 0,0.844613834 0,1.88652798 L0,12.1134035 C0,13.1553177 0.844620033,14 1.88654183,14 L6.93039128,14 L6.93898749,8.99711342 L5.63924802,8.99711342 C5.47033771,8.99711342 5.33324364,8.86053407 5.33259293,8.691625 L5.32635982,7.07900917 C5.32570911,6.90917542 5.46321416,6.77115767 5.63304916,6.77115767 L6.93042553,6.77115767 L6.93042553,5.21296124 C6.93042553,3.40468898 8.03481537,2.42007104 9.6479225,2.42007104 L10.9716012,2.42007104 C11.1409567,2.42007104 11.2782905,2.55736959 11.2782905,2.72675812 L11.2782905,4.08652407 C11.2782905,4.25584411 11.1410595,4.39310841 10.9717724,4.39321115 L10.1594481,4.39358787 C9.2821899,4.39358787 9.11232066,4.81044943 9.11232066,5.42221396 L9.11232066,6.77119191 L11.0399599,6.77119191 C11.223631,6.77119191 11.3661362,6.93157333 11.3444916,7.11397595 L11.1533545,8.72659178 C11.1350661,8.88091138 11.0042051,8.99718191 10.8488227,8.99718191 L9.12091686,8.99718191 L9.11232066,14 L12.1134924,14 C13.15538,14 14,13.1553862 14,12.1135063 L14,1.88652798 C14,0.844613834 13.1553457,0 12.1134239,0 Z" id="Path"></path>
                        </g>
                    </g>
                </g>
            </g>
        </g>
    </g>
</svg>