<svg id="Layer_1" data-name="Layer 1" xmlns="http://www.w3.org/2000/svg" viewBox="0 0 20 20"><defs><style>.cls-1{fill:#1d455f;fill-rule:evenodd;}</style></defs><title>tag</title><path class="cls-1" d="M19.47,10.67,9.33.53A1.81,1.81,0,0,0,7.72,0L2.45,1A1.83,1.83,0,0,0,1,2.45L0,7.72a1.81,1.81,0,0,0,.5,1.61L10.67,19.47a1.82,1.82,0,0,0,2.57,0l6.23-6.23A1.82,1.82,0,0,0,19.47,10.67Zm-.83,1.74-6.23,6.23a.65.65,0,0,1-.91,0L1.36,8.5h0a.65.65,0,0,1-.18-.58l1-5.27a.64.64,0,0,1,.53-.52l5.27-1a.66.66,0,0,1,.57.18L18.64,11.5A.65.65,0,0,1,18.64,12.41Z" transform="translate(0 0)"/><path class="cls-1" d="M3.67,3.66a1.61,1.61,0,1,0,2.27,0A1.61,1.61,0,0,0,3.67,3.66Zm1.7,1.69a.79.79,0,1,1,0-1.12A.79.79,0,0,1,5.37,5.35Z" transform="translate(0 0)"/></svg>