<svg id="Layer_1" data-name="Layer 1" xmlns="http://www.w3.org/2000/svg" viewBox="0 0 24 20"><defs><style>.cls-1{fill:#fff;}</style></defs><title>audio</title><path class="cls-1" d="M0,15H5V5H0ZM2,7H3v6H2Z" transform="translate(0 0)"/><polygon class="cls-1" points="7 7.29 14 3.4 14 16.6 7 12.71 7 15 16 20 16 0 7 5 7 7.29"/><path class="cls-1" d="M19.23,5.87,18,7.09A4.12,4.12,0,0,1,19.21,10,4.17,4.17,0,0,1,18,12.9l1.22,1.22a5.84,5.84,0,0,0,0-8.25Z" transform="translate(0 0)"/><path class="cls-1" d="M21.4,3.71,20.15,5a7.12,7.12,0,0,1,0,10.08l1.25,1.25a8.88,8.88,0,0,0,0-12.58Z" transform="translate(0 0)"/></svg>