<svg id="Layer_1" data-name="Layer 1" xmlns="http://www.w3.org/2000/svg" viewBox="0 0 44 44"><defs><style>.cls-1{fill:#68abcc;fill-rule:evenodd;}.cls-2{fill:#fff;}</style></defs><title>text-icon-list</title><g id="Symbols"><g id="book-result"><g id="text-icon-c"><path class="cls-1" d="M22,0h0A22,22,0,0,1,44,22h0A22,22,0,0,1,22,44h0A22,22,0,0,1,0,22H0A22,22,0,0,1,22,0Z" transform="translate(0 0)"/><path class="cls-2" d="M10.61,26.72V15.18H9.93A.93.93,0,0,0,9,16.1V30.73a1.23,1.23,0,0,0,0,.2.94.94,0,0,0,1.12.7A22.62,22.62,0,0,1,20,31.44a10.39,10.39,0,0,0-7-2.37A2.36,2.36,0,0,1,10.61,26.72Z" transform="translate(0 0)"/><path class="cls-2" d="M21.17,15.78C19.11,12.5,15.15,12,13,12a.93.93,0,0,0-.93.92v13.8a.93.93,0,0,0,.94.92,11.6,11.6,0,0,1,8.31,3V16.24A.83.83,0,0,0,21.17,15.78Z" transform="translate(0 0)"/><path class="cls-2" d="M32,26.72V12.92a.92.92,0,0,0-.92-.92c-2.18,0-6.13.5-8.19,3.78a.91.91,0,0,0-.13.46V30.68a11.6,11.6,0,0,1,8.31-3A.93.93,0,0,0,32,26.72Z" transform="translate(0 0)"/><path class="cls-2" d="M35,16.1a.93.93,0,0,0-.94-.92h-.67V26.72a2.36,2.36,0,0,1-2.37,2.35,10.43,10.43,0,0,0-7,2.37,22.67,22.67,0,0,1,9.87.19l.21,0a.93.93,0,0,0,.93-.92Z" transform="translate(0 0)"/></g></g></g></svg>