<svg id="Layer_1" data-name="Layer 1" xmlns="http://www.w3.org/2000/svg" viewBox="0 0 19.53 14.74"><defs><style>.cls-1{fill:#fff;}</style></defs><title>text-icon-white</title><path class="cls-1" d="M1.2,11V2.39H.7a.69.69,0,0,0-.7.69v11a.77.77,0,0,0,0,.15.7.7,0,0,0,.84.52,16.91,16.91,0,0,1,7.39-.14A7.8,7.8,0,0,0,3,12.8,1.78,1.78,0,0,1,1.2,11Z" transform="translate(0 0)"/><path class="cls-1" d="M9.12,2.83C7.58.38,4.62,0,3,0a.69.69,0,0,0-.7.69V11a.69.69,0,0,0,.7.69A8.7,8.7,0,0,1,9.22,14V3.18A.64.64,0,0,0,9.12,2.83Z" transform="translate(0 0)"/><path class="cls-1" d="M19.53,3.08a.7.7,0,0,0-.7-.69h-.51V11a1.77,1.77,0,0,1-1.78,1.76,7.78,7.78,0,0,0-5.26,1.78,16.91,16.91,0,0,1,7.39.14l.16,0a.69.69,0,0,0,.7-.69Z" transform="translate(0 0)"/><path class="cls-1" d="M17.24,11V.69a.69.69,0,0,0-.7-.69C14.91,0,12,.38,10.4,2.83a.63.63,0,0,0-.09.35V14a8.68,8.68,0,0,1,6.23-2.28A.7.7,0,0,0,17.24,11Z" transform="translate(0 0)"/></svg>