<svg id="Layer_1" data-name="Layer 1" xmlns="http://www.w3.org/2000/svg" viewBox="0 0 20.68 14.66"><defs><style>.cls-1{fill:#1d455f;fill-rule:evenodd;}</style></defs><title>video-icon-Blue</title><path class="cls-1" d="M20.25,2.3A2.61,2.61,0,0,0,18.43.45,60.86,60.86,0,0,0,10.34,0,62.48,62.48,0,0,0,2.25.44,2.63,2.63,0,0,0,.43,2.3a27.34,27.34,0,0,0-.43,5,27.34,27.34,0,0,0,.43,5,2.61,2.61,0,0,0,1.82,1.85,59,59,0,0,0,8.09.44,60.83,60.83,0,0,0,8.09-.43,2.58,2.58,0,0,0,1.82-1.84,28.35,28.35,0,0,0,.43-5A27.44,27.44,0,0,0,20.25,2.3Zm-12,8.17V4.19l5.38,3.14Z" transform="translate(0 0)"/></svg>