<svg id="Layer_1" data-name="Layer 1" xmlns="http://www.w3.org/2000/svg" viewBox="0 0 44 44"><defs><style>.cls-1{fill:#9087a1;fill-rule:evenodd;}.cls-2{fill:#fff;}</style></defs><title>audio-icon-list</title><g id="Symbols"><g id="book-result"><g id="audio-icon-c"><path class="cls-1" d="M22,0h0A22,22,0,0,1,44,22h0A22,22,0,0,1,22,44h0A22,22,0,0,1,0,22H0A22,22,0,0,1,22,0Z" transform="translate(0 0)"/><path class="cls-2" d="M19.24,13.27l-4,3.11a2.35,2.35,0,0,0-.69-.1H10.44A2.42,2.42,0,0,0,8,18.69v7a2.42,2.42,0,0,0,2.44,2.41h4.11a2.32,2.32,0,0,0,.59-.07l4.1,3.18a1.35,1.35,0,0,0,.79.27,1.24,1.24,0,0,0,1.23-1.25v-16a1.18,1.18,0,0,0-.27-.78A1.25,1.25,0,0,0,19.24,13.27Z" transform="translate(0 0)"/><path class="cls-2" d="M31.66,13,30.3,14.37a11.41,11.41,0,0,1,.12,15.78l1.36,1.34h0A13.28,13.28,0,0,0,31.66,13Z" transform="translate(0 0)"/><path class="cls-2" d="M23.9,20.67a2.54,2.54,0,0,1,.1,3.17l1.37,1.35a4.43,4.43,0,0,0-.11-5.87Z" transform="translate(0 0)"/><path class="cls-2" d="M28.39,16.22,27,17.57A6.88,6.88,0,0,1,27.14,27l1.37,1.35A8.77,8.77,0,0,0,28.39,16.22Z" transform="translate(0 0)"/></g></g></g></svg>