<svg id="Layer_1" data-name="Layer 1" xmlns="http://www.w3.org/2000/svg" viewBox="0 0 20.59 13.89"><defs><style>.cls-1{fill:#1d455f;}</style></defs><title>audio-icon-Blue</title><path class="cls-1" d="M8.43.2l-3,2.33a1.81,1.81,0,0,0-.52-.07H1.83A1.82,1.82,0,0,0,0,4.27V9.55a1.82,1.82,0,0,0,1.83,1.81H4.91a1.74,1.74,0,0,0,.45-.06l3.07,2.38A.93.93,0,0,0,10,13V.93A.88.88,0,0,0,9.74.35.94.94,0,0,0,8.43.2Z" transform="translate(0 0)"/><path class="cls-1" d="M11.92,5.75A1.91,1.91,0,0,1,12,8.13l1,1a3.33,3.33,0,0,0-.09-4.41Z" transform="translate(0 0)"/><path class="cls-1" d="M15.29,2.41l-1,1a5.17,5.17,0,0,1,.09,7l1,1A6.59,6.59,0,0,0,15.29,2.41Z" transform="translate(0 0)"/><path class="cls-1" d="M17.74,0l-1,1a8.55,8.55,0,0,1,.08,11.83l1,1h0A10,10,0,0,0,17.74,0Z" transform="translate(0 0)"/></svg>